{"glyphs":{"0":{"ha":1320,"x_min":0,"x_max":1270,"o":"m 239 971 l 0 732 l 0 675 l 1270 675 l 1270 733 l 1032 971 l 239 971 m 947 637 l 974 610 l 974 361 l 909 296 l 362 296 l 296 362 l 296 609 l 325 637 l 0 637 l 0 239 l 239 0 l 1032 0 l 1270 238 l 1270 637 l 947 637 z "},"1":{"ha":408,"x_min":0,"x_max":351,"o":"m 54 0 l 351 0 l 351 637 l 54 637 l 54 0 m 350 971 l 0 816 l 0 675 l 351 675 l 351 971 l 350 971 z "},"2":{"ha":1312,"x_min":0,"x_max":1270,"o":"m 0 970 l 296 674 l 1198 674 l 902 970 l 0 970 m 329 635 l 0 307 l 0 1 l 111 1 l 113 0 l 113 1 l 882 1 l 882 2 l 1270 2 l 1270 298 l 464 298 l 463 297 l 463 298 l 410 298 l 452 339 l 452 339 l 748 635 l 329 635 m 817 636 l 818 635 l 802 635 l 505 339 l 882 339 l 882 340 l 1270 340 l 1270 603 l 1236 636 l 817 636 z "},"3":{"ha":1322,"x_min":0,"x_max":1270,"o":"m 296 971 l 0 677 l 1270 675 l 1270 971 l 296 971 m 296 296 l 0 0 l 580 0 l 876 296 l 296 296 m 935 637 l 933 636 l 296 636 l 296 338 l 974 339 l 633 0 l 1054 0 l 1270 216 l 1270 484 l 1173 484 l 1270 581 l 1270 637 l 935 637 z "},"4":{"ha":1322,"x_min":0,"x_max":1275,"o":"m 1275 975 l 977 677 l 1275 677 l 1275 975 m 30 447 l 0 416 l 0 149 l 154 149 l 452 447 l 451 447 l 977 972 l 555 972 l 30 447 m 977 639 l 977 447 l 506 447 l 208 149 l 977 149 l 977 0 l 1275 0 l 1275 639 l 977 639 z "},"5":{"ha":1320,"x_min":0,"x_max":1272,"o":"m 0 971 l 0 675 l 437 675 l 437 674 l 1272 674 l 1272 972 l 0 971 m 297 297 l 0 0 l 429 0 l 726 297 l 297 297 m 0 637 l 0 336 l 819 336 l 482 0 l 903 0 l 1272 368 l 1272 633 l 297 632 l 297 637 l 0 637 z "},"6":{"ha":1319,"x_min":0,"x_max":1272,"o":"m 1272 972 l 402 972 l 107 676 l 552 676 l 552 675 l 975 675 l 1272 972 m 69 638 l 0 570 l 0 0 l 615 0 l 912 297 l 297 297 l 297 338 l 975 338 l 975 306 l 972 304 l 669 0 l 1089 0 l 1272 183 l 1272 635 l 486 635 l 489 638 l 69 638 z "},"7":{"ha":1315,"x_min":0,"x_max":1272,"o":"m 0 972 l 297 675 l 672 675 l 672 677 l 1160 677 l 1272 789 l 1272 972 l 0 972 m 1122 639 l 703 639 l 488 424 l 488 3 l 1122 639 m 538 0 l 785 0 l 785 246 l 538 0 z "},"8":{"ha":1314,"x_min":0,"x_max":1270,"o":"m 180 971 l 0 791 l 0 675 l 1270 675 l 1270 788 l 1088 971 l 180 971 m 0 637 l 0 591 l 106 486 l 0 380 l 0 181 l 181 0 l 1086 0 l 1270 184 l 1270 380 l 1165 486 l 1270 591 l 1270 637 l 0 637 m 296 305 l 296 334 l 302 341 l 967 341 l 974 334 l 974 307 l 964 296 l 304 296 l 296 305 z "},"9":{"ha":1312,"x_min":0,"x_max":1272,"o":"m 0 972 l 0 676 l 448 676 l 448 675 l 975 675 l 975 635 l 943 635 l 943 635 l 404 635 l 401 638 l 0 638 l 0 633 l 297 338 l 921 337 l 1272 688 l 1272 972 l 0 972 m 975 337 l 975 337 l 943 306 l 935 298 l 935 298 l 935 297 l 297 297 l 0 0 l 1064 0 l 1272 208 l 1272 635 l 975 337 z "},"\u0000":{"ha":0,"x_min":0,"x_max":0,"o":""}," ":{"ha":355,"x_min":0,"x_max":0,"o":""},"!":{"ha":357,"x_min":0,"x_max":298,"o":"m 0 0 l 298 0 l 298 298 l 0 298 l 0 0 m 0 974 l 0 426 l 149 333 l 298 426 l 298 974 l 0 974 z "},"\"":{"ha":712,"x_min":0,"x_max":659,"o":"m 0 629 l 297 629 l 297 1008 l 0 1008 l 0 629 m 362 629 l 659 629 l 659 1008 l 362 1008 l 362 629 z "},"#":{"ha":1316,"x_min":0,"x_max":1273,"o":"m 827 973 l 827 825 l 446 825 l 446 973 l 149 973 l 149 825 l 0 825 l 0 527 l 149 527 l 149 446 l 0 446 l 0 149 l 149 149 l 149 0 l 446 0 l 446 149 l 827 149 l 827 0 l 1124 0 l 1124 149 l 1273 149 l 1273 446 l 1124 446 l 1124 527 l 1273 527 l 1273 825 l 1124 825 l 1124 973 l 827 973 m 446 527 l 827 527 l 827 446 l 446 446 l 446 527 z "},"$":{"ha":1327,"x_min":0,"x_max":1272,"o":"m 494 67 l 427 0 l 494 0 l 494 -37 l 791 -37 l 791 0 l 847 0 l 1272 425 l 1272 633 l 791 633 l 791 675 l 1272 675 l 1272 971 l 791 971 l 791 1009 l 494 1009 l 494 971 l 426 971 l 130 675 l 494 675 l 494 636 l 92 636 l 2 546 l 2 336 l 211 336 l 212 336 l 212 336 l 494 336 l 494 297 l 0 297 l 0 0 l 373 0 l 494 121 l 494 67 z "},"%":{"ha":1444,"x_min":0,"x_max":1395,"o":"m 419 -4 l 421 -2 l 424 -2 l 720 294 l 1000 575 l 1337 912 l 1337 914 l 1395 971 l 975 971 l 0 -4 l 419 -4 m 127 677 l 424 677 l 424 974 l 127 974 l 127 677 m 963 0 l 1260 0 l 1260 297 l 963 297 l 963 0 z "},"&":{"ha":1487,"x_min":0,"x_max":1418,"o":"m 1006 636 l 853 636 l 853 340 l 1006 340 l 1006 636 m 189 972 l 0 783 l 0 675 l 681 675 l 681 972 l 189 972 m 0 637 l 0 190 l 190 0 l 1418 0 l 1121 297 l 815 297 l 815 636 l 0 637 m 295 315 l 295 323 l 311 340 l 520 340 l 520 297 l 313 297 l 295 315 z "},"'":{"ha":352,"x_min":0,"x_max":297,"o":"m 0 629 l 297 629 l 297 1008 l 0 1008 l 0 629 z "},"(":{"ha":631,"x_min":0,"x_max":562,"o":"m 142 1009 l 0 867 l 1 866 l 0 866 l 0 106 l 3 106 l 142 -33 l 562 -33 l 296 231 l 296 745 l 562 1009 l 142 1009 z "},")":{"ha":626,"x_min":0,"x_max":562,"o":"m 0 1009 l 264 745 l 264 231 l 0 -33 l 419 -33 l 558 106 l 562 106 l 562 866 l 560 866 l 562 867 l 419 1009 l 0 1009 z "},"*":{"ha":1297,"x_min":-1,"x_max":1236,"o":"m 817 1008 l 765 956 l 765 1008 l 469 1008 l 469 958 l 418 1008 l -1 1008 l 258 747 l -1 747 l -1 451 l 260 451 l -1 191 l 418 191 l 469 240 l 469 191 l 765 191 l 765 241 l 816 191 l 1236 191 l 975 451 l 1236 451 l 1236 747 l 976 747 l 1236 1008 l 817 1008 z "},"+":{"ha":1019,"x_min":0,"x_max":971,"o":"m 338 971 l 338 629 l 0 629 l 0 333 l 338 333 l 338 0 l 633 0 l 633 333 l 971 333 l 971 629 l 633 629 l 633 971 l 338 971 z "},",":{"ha":340,"x_min":0,"x_max":296,"o":"m 1 298 l 0 -34 l 296 92 l 296 298 l 1 298 z "},"-":{"ha":682,"x_min":0,"x_max":633,"o":"m 0 629 l 0 333 l 633 333 l 633 629 l 0 629 z "},".":{"ha":349,"x_min":0,"x_max":297,"o":"m 0 0 l 297 0 l 297 297 l 0 297 l 0 0 z "},"/":{"ha":1391,"x_min":-35,"x_max":1428,"o":"m 1009 1007 l -35 -37 l 385 -37 l 1428 1006 l 1428 1007 l 1009 1007 z "},":":{"ha":347,"x_min":0,"x_max":297,"o":"m 0 677 l 297 677 l 297 974 l 0 974 l 0 677 m 0 0 l 297 0 l 297 297 l 0 297 l 0 0 z "},";":{"ha":345,"x_min":0,"x_max":296,"o":"m 1 677 l 296 677 l 296 974 l 1 974 l 1 677 m 1 298 l 0 -34 l 296 92 l 296 298 l 1 298 z "},"<":{"ha":688,"x_min":0,"x_max":906,"o":"m 486 971 l 247 732 l 248 732 l 0 485 l 485 0 l 905 0 l 420 485 l 906 971 l 486 971 z "},"=":{"ha":1026,"x_min":0,"x_max":977,"o":"m 0 676 l 977 676 l 977 974 l 0 974 l 0 676 m 0 0 l 977 0 l 977 298 l 0 298 l 0 0 z "},">":{"ha":955,"x_min":0,"x_max":906,"o":"m 0 971 l 486 485 l 1 0 l 421 0 l 906 485 l 659 732 l 659 732 l 420 971 l 0 971 z "},"?":{"ha":1311,"x_min":0,"x_max":1272,"o":"m 488 0 l 785 0 l 785 297 l 488 297 l 488 0 m 0 972 l 297 675 l 966 675 l 975 666 l 975 640 l 972 637 l 493 637 l 493 340 l 1095 340 l 1272 517 l 1272 789 l 1088 972 l 0 972 z "},"@":{"ha":2348,"x_min":0,"x_max":2300,"o":"m 298 970 l 3 675 l 3 674 l 0 674 l 0 296 l 0 296 l 0 296 l 296 1 l 715 1 l 296 419 l 296 549 l 718 970 l 298 970 m 441 637 l 393 588 l 393 382 l 774 1 l 910 1 l 1206 297 l 897 297 l 709 485 l 861 637 l 441 637 m 1245 969 l 1245 970 l 774 969 l 479 675 l 935 675 l 935 673 l 1245 675 l 1245 0 l 1532 0 l 1829 297 l 1550 297 l 1550 970 l 1245 969 m 1586 970 l 2004 549 l 2004 419 l 1586 1 l 2005 1 l 2300 296 l 2300 296 l 2300 296 l 2300 674 l 2297 674 l 2298 675 l 2002 970 l 1586 970 z "},"A":{"ha":1312,"x_min":0,"x_max":1272,"o":"m 974 637 l 974 0 l 1271 0 l 1271 637 l 974 637 m 0 297 l 0 0 l 936 0 l 936 297 l 0 297 m 833 971 l 0 606 l 0 335 l 297 335 l 297 412 l 896 675 l 1271 675 l 1271 839 l 1272 840 l 1271 844 l 1271 971 l 833 971 z "},"B":{"ha":1318,"x_min":0,"x_max":1270,"o":"m 799 636 l 797 635 l 334 635 l 334 338 l 795 338 l 837 296 l 836 296 l 1133 0 l 1267 0 l 1267 285 l 1256 296 l 1067 486 l 1218 636 l 799 636 m 0 970 l 0 0 l 1079 0 l 785 295 l 786 296 l 296 296 l 296 338 l 296 338 l 296 635 l 296 635 l 296 674 l 1256 674 l 1267 686 l 1270 688 l 1270 970 l 0 970 z "},"C":{"ha":1309,"x_min":0,"x_max":1270,"o":"m 0 971 l 0 675 l 1270 675 l 1270 971 l 0 971 m 0 637 l 0 401 l 401 0 l 821 0 l 496 325 l 496 325 l 296 525 l 296 637 l 0 637 m 575 299 l 873 1 l 871 0 l 1270 0 l 1270 299 l 575 299 z "},"D":{"ha":1305,"x_min":0,"x_max":1270,"o":"m 974 526 l 974 526 l 744 296 l 296 296 l 296 637 l 0 637 l 0 0 l 867 0 l 1270 404 l 1270 823 l 974 526 m 0 971 l 0 675 l 974 675 l 974 580 l 1270 877 l 1270 971 l 0 971 z "},"E":{"ha":1325,"x_min":0,"x_max":1274,"o":"m 0 974 l 0 676 l 1274 676 l 1274 974 l 0 974 m 0 638 l 0 0 l 1274 0 l 1274 298 l 298 298 l 298 638 l 0 638 m 336 338 l 977 338 l 977 635 l 336 635 l 336 338 z "},"F":{"ha":1320,"x_min":0,"x_max":1271,"o":"m 335 634 l 974 634 l 974 337 l 335 337 l 335 634 m 1 637 l 1 634 l 0 0 l 296 0 l 297 634 l 297 637 l 1 637 m 1 971 l 1 675 l 1271 675 l 1271 971 l 1 971 z "},"G":{"ha":1317,"x_min":0,"x_max":1270,"o":"m 0 971 l 0 675 l 1270 675 l 1270 971 l 0 971 m 0 637 l 0 0 l 397 0 l 693 296 l 296 296 l 296 637 l 0 637 m 636 634 l 342 337 l 788 337 l 450 0 l 871 0 l 974 103 l 974 0 l 1270 0 l 1270 634 l 636 634 z "},"H":{"ha":1310,"x_min":0,"x_max":1270,"o":"m 1270 0 l 1270 971 l 974 971 l 974 0 l 1270 0 m 0 672 l 296 672 l 296 971 l 0 971 l 0 672 m 296 0 l 296 337 l 936 337 l 936 634 l 296 634 l 296 634 l 0 634 l 0 0 l 296 0 z "},"I":{"ha":347,"x_min":0,"x_max":298,"o":"m 0 676 l 298 676 l 298 974 l 0 974 l 0 676 m 0 0 l 298 0 l 298 638 l 0 638 l 0 0 z "},"J":{"ha":1317,"x_min":0,"x_max":1270,"o":"m 0 296 l 0 0 l 400 0 l 397 3 l 690 296 l 0 296 m 974 675 l 1270 675 l 1270 971 l 974 971 l 974 675 m 974 637 l 974 526 l 774 326 l 448 0 l 867 0 l 1270 403 l 1270 637 l 974 637 z "},"K":{"ha":1327,"x_min":0,"x_max":1271,"o":"m 1154 972 l 857 675 l 974 675 l 1271 972 l 1154 972 m 492 297 l 792 0 l 895 2 l 1271 2 l 1271 297 l 492 297 m 0 675 l 297 675 l 297 972 l 0 972 l 0 675 m 679 972 l 342 634 l 297 634 l 297 637 l 0 637 l 0 0 l 297 0 l 297 337 l 451 337 l 453 335 l 873 335 l 667 540 l 802 675 l 803 675 l 1100 972 l 679 972 z "},"L":{"ha":1320,"x_min":0,"x_max":1275,"o":"m 0 637 l 0 0 l 1275 0 l 1275 296 l 298 296 l 298 637 l 0 637 m 0 675 l 298 675 l 298 972 l 0 972 l 0 675 z "},"M":{"ha":1533,"x_min":0,"x_max":1485,"o":"m 0 0 l 298 0 l 298 640 l 0 640 l 0 0 m 1187 0 l 1485 0 l 1485 279 l 1187 410 l 1187 0 m 0 975 l 0 676 l 591 677 l 591 0 l 889 0 l 889 897 l 705 975 l 0 975 m 928 567 l 1187 452 l 1187 452 l 1485 321 l 1485 646 l 928 880 l 928 567 z "},"N":{"ha":1317,"x_min":0,"x_max":1270,"o":"m 0 0 l 296 0 l 296 637 l 0 637 l 0 0 m 974 0 l 1270 0 l 1270 641 l 974 771 l 974 0 m 0 971 l 0 675 l 455 675 l 936 464 l 936 787 l 517 971 l 0 971 z "},"O":{"ha":1322,"x_min":0,"x_max":1274,"o":"m 0 974 l 0 336 l 298 336 l 298 676 l 1274 676 l 1274 974 l 0 974 m 977 638 l 977 298 l 0 298 l 0 0 l 1274 0 l 1274 638 l 977 638 z "},"P":{"ha":1315,"x_min":0,"x_max":1274,"o":"m 0 638 l 0 0 l 298 0 l 298 298 l 537 298 l 833 593 l 298 593 l 298 638 l 0 638 m 0 974 l 0 676 l 298 676 l 298 679 l 972 679 l 887 593 l 886 593 l 591 298 l 1012 298 l 1274 559 l 1274 974 l 0 974 z "},"Q":{"ha":1313,"x_min":0,"x_max":1272,"o":"m 1155 297 l 858 0 l 1272 0 l 1272 297 l 1155 297 m 975 592 l 975 591 l 680 297 l 297 297 l 297 637 l 0 637 l 0 0 l 804 0 l 1101 297 l 1100 297 l 1215 412 l 1272 468 l 1272 888 l 975 592 m 0 972 l 0 675 l 975 675 l 975 646 l 1272 943 l 1272 972 l 0 972 z "},"R":{"ha":1312,"x_min":0,"x_max":1280,"o":"m 0 636 l 0 0 l 297 0 l 297 297 l 564 297 l 861 0 l 1280 0 l 983 297 l 983 297 l 689 591 l 297 591 l 297 636 l 0 636 m 0 971 l 0 675 l 297 675 l 297 677 l 970 677 l 884 591 l 743 591 l 1023 311 l 1270 558 l 1270 971 l 0 971 z "},"S":{"ha":1320,"x_min":0,"x_max":1272,"o":"m 426 971 l 130 675 l 1272 675 l 1272 971 l 426 971 m 92 636 l 2 546 l 2 336 l 211 336 l 212 336 l 212 336 l 763 336 l 724 297 l 427 0 l 847 0 l 1272 425 l 1272 633 l 509 633 l 512 636 l 92 636 m 0 297 l 0 0 l 373 0 l 669 297 l 0 297 z "},"T":{"ha":1320,"x_min":0,"x_max":1277,"o":"m 489 0 l 787 0 l 787 637 l 489 637 l 489 0 m 0 675 l 1277 675 l 1277 974 l 0 974 l 0 675 z "},"U":{"ha":1313,"x_min":0,"x_max":1271,"o":"m 975 335 l 1271 335 l 1271 972 l 975 972 l 975 335 m 0 675 l 297 675 l 297 972 l 0 972 l 0 675 m 0 637 l 0 0 l 1271 0 l 1271 297 l 297 297 l 297 637 l 0 637 z "},"V":{"ha":1312,"x_min":0,"x_max":1272,"o":"m 0 971 l 0 366 l 296 236 l 296 971 l 0 971 m 974 640 l 974 296 l 896 296 l 335 543 l 335 219 l 833 0 l 1270 0 l 1270 128 l 1272 132 l 1270 132 l 1270 640 l 974 640 m 1270 677 l 1270 971 l 974 971 l 974 677 l 1270 677 z "},"W":{"ha":1520,"x_min":0,"x_max":1478,"o":"m 0 970 l 0 692 l 296 562 l 296 970 l 0 970 m 1182 676 l 1478 676 l 1478 970 l 1182 970 l 1182 676 m 0 328 l 554 94 l 554 406 l 296 520 l 296 521 l 0 651 l 0 328 m 593 970 l 592 78 l 777 0 l 1478 0 l 1478 638 l 1182 638 l 1182 296 l 890 296 l 890 970 l 593 970 z "},"X":{"ha":1316,"x_min":0,"x_max":1275,"o":"m 0 975 l 0 715 l 385 715 l 298 802 l 298 975 l 0 975 m 2 677 l 191 488 l 1 297 l 0 297 l 0 264 l 0 264 l 0 0 l 298 0 l 298 173 l 369 244 l 368 245 l 761 638 l 461 638 l 423 677 l 2 677 m 977 975 l 977 801 l 815 638 l 814 638 l 513 336 l 815 336 l 977 174 l 977 0 l 1275 0 l 1275 293 l 1275 293 l 1275 297 l 1275 297 l 1275 298 l 1275 298 l 1274 298 l 1085 488 l 1274 677 l 1275 677 l 1275 677 l 1275 677 l 1275 677 l 1275 682 l 1275 682 l 1275 975 l 977 975 z "},"Y":{"ha":1323,"x_min":0,"x_max":1270,"o":"m 0 971 l 0 713 l 383 713 l 296 799 l 296 971 l 0 971 m 974 971 l 974 798 l 820 644 l 820 339 l 935 339 l 1270 674 l 1270 674 l 1270 675 l 1270 675 l 1270 675 l 1270 679 l 1270 679 l 1270 971 l 974 971 m 1 675 l 336 339 l 488 339 l 488 0 l 782 0 l 782 636 l 460 636 l 421 675 l 1 675 z "},"Z":{"ha":1317,"x_min":0,"x_max":1273,"o":"m 502 297 l 204 0 l 1273 0 l 1273 297 l 502 297 m 784 637 l 779 633 l 362 633 l 27 297 l 0 271 l 0 0 l 151 0 l 448 297 l 448 297 l 486 336 l 903 336 l 1204 637 l 784 637 m 0 973 l 0 676 l 823 676 l 822 675 l 1242 675 l 1243 676 l 1273 706 l 1273 973 l 0 973 z "},"[":{"ha":486,"x_min":0,"x_max":446,"o":"m 0 1012 l 0 -34 l 446 -34 l 446 261 l 297 261 l 297 717 l 445 717 l 445 1012 l 0 1012 z "},"\\":{"ha":1393,"x_min":-35,"x_max":1428,"o":"m -34 1007 l -35 1006 l 1009 -37 l 1428 -37 l 385 1007 l -34 1007 z "},"]":{"ha":486,"x_min":0,"x_max":446,"o":"m 1 1012 l 1 717 l 149 717 l 149 261 l 0 261 l 0 -34 l 446 -34 l 446 1012 l 1 1012 z "},"^":{"ha":1120,"x_min":0,"x_max":1074,"o":"m 538 1009 l 537 1009 l 537 1009 l 0 473 l 448 473 l 537 562 l 627 473 l 1074 473 l 538 1009 z "},"_":{"ha":1023,"x_min":0,"x_max":977,"o":"m 0 -33 l 977 -33 l 977 265 l 0 265 l 0 -33 z "},"`":{"ha":494,"x_min":0,"x_max":446,"o":"m 0 1184 l 172 1012 l 446 1012 l 274 1184 l 0 1184 z "},"a":{"ha":1315,"x_min":0,"x_max":1272,"o":"m 974 637 l 974 0 l 1271 0 l 1271 637 l 974 637 m 0 297 l 0 0 l 936 0 l 936 297 l 0 297 m 833 971 l 0 606 l 0 335 l 297 335 l 297 412 l 896 675 l 1271 675 l 1271 839 l 1272 840 l 1271 844 l 1271 971 l 833 971 z "},"b":{"ha":1312,"x_min":0,"x_max":1270,"o":"m 799 636 l 797 635 l 334 635 l 334 338 l 795 338 l 837 296 l 836 296 l 1133 0 l 1267 0 l 1267 285 l 1256 296 l 1067 486 l 1218 636 l 799 636 m 0 970 l 0 0 l 1079 0 l 785 295 l 786 296 l 296 296 l 296 338 l 296 338 l 296 635 l 296 635 l 296 674 l 1256 674 l 1267 686 l 1270 688 l 1270 970 l 0 970 z "},"c":{"ha":1310,"x_min":0,"x_max":1270,"o":"m 0 971 l 0 675 l 1270 675 l 1270 971 l 0 971 m 0 637 l 0 401 l 401 0 l 821 0 l 496 325 l 496 325 l 296 525 l 296 637 l 0 637 m 575 299 l 873 1 l 871 0 l 1270 0 l 1270 299 l 575 299 z "},"d":{"ha":1315,"x_min":0,"x_max":1270,"o":"m 974 526 l 974 526 l 744 296 l 296 296 l 296 637 l 0 637 l 0 0 l 867 0 l 1270 404 l 1270 823 l 974 526 m 0 971 l 0 675 l 974 675 l 974 580 l 1270 877 l 1270 971 l 0 971 z "},"e":{"ha":1320,"x_min":0,"x_max":1274,"o":"m 0 974 l 0 676 l 1274 676 l 1274 974 l 0 974 m 0 638 l 0 0 l 1274 0 l 1274 298 l 298 298 l 298 638 l 0 638 m 336 338 l 977 338 l 977 635 l 336 635 l 336 338 z "},"f":{"ha":1307,"x_min":0,"x_max":1271,"o":"m 335 634 l 974 634 l 974 337 l 335 337 l 335 634 m 1 637 l 1 634 l 0 0 l 296 0 l 297 634 l 297 637 l 1 637 m 1 971 l 1 675 l 1271 675 l 1271 971 l 1 971 z "},"g":{"ha":1322,"x_min":0,"x_max":1270,"o":"m 0 971 l 0 675 l 1270 675 l 1270 971 l 0 971 m 0 637 l 0 0 l 397 0 l 693 296 l 296 296 l 296 637 l 0 637 m 636 634 l 342 337 l 788 337 l 450 0 l 871 0 l 974 103 l 974 0 l 1270 0 l 1270 634 l 636 634 z "},"h":{"ha":1306,"x_min":0,"x_max":1270,"o":"m 1270 0 l 1270 971 l 974 971 l 974 0 l 1270 0 m 0 672 l 296 672 l 296 971 l 0 971 l 0 672 m 296 0 l 296 337 l 936 337 l 936 634 l 296 634 l 296 634 l 0 634 l 0 0 l 296 0 z "},"i":{"ha":347,"x_min":0,"x_max":298,"o":"m 0 676 l 298 676 l 298 974 l 0 974 l 0 676 m 0 0 l 298 0 l 298 638 l 0 638 l 0 0 z "},"j":{"ha":1312,"x_min":0,"x_max":1270,"o":"m 0 296 l 0 0 l 400 0 l 397 3 l 690 296 l 0 296 m 974 675 l 1270 675 l 1270 971 l 974 971 l 974 675 m 974 637 l 974 526 l 774 326 l 448 0 l 867 0 l 1270 403 l 1270 637 l 974 637 z "},"k":{"ha":1322,"x_min":0,"x_max":1271,"o":"m 1154 972 l 857 675 l 974 675 l 1271 972 l 1154 972 m 492 297 l 792 0 l 895 2 l 1271 2 l 1271 297 l 492 297 m 0 675 l 297 675 l 297 972 l 0 972 l 0 675 m 679 972 l 342 634 l 297 634 l 297 637 l 0 637 l 0 0 l 297 0 l 297 337 l 451 337 l 453 335 l 873 335 l 667 540 l 802 675 l 803 675 l 1100 972 l 679 972 z "},"l":{"ha":1320,"x_min":0,"x_max":1275,"o":"m 0 637 l 0 0 l 1275 0 l 1275 296 l 298 296 l 298 637 l 0 637 m 0 675 l 298 675 l 298 972 l 0 972 l 0 675 z "},"m":{"ha":1530,"x_min":0,"x_max":1485,"o":"m 0 0 l 298 0 l 298 640 l 0 640 l 0 0 m 1187 0 l 1485 0 l 1485 279 l 1187 410 l 1187 0 m 0 975 l 0 676 l 591 677 l 591 0 l 889 0 l 889 897 l 705 975 l 0 975 m 928 567 l 1187 452 l 1187 452 l 1485 321 l 1485 646 l 928 880 l 928 567 z "},"n":{"ha":1310,"x_min":0,"x_max":1270,"o":"m 0 0 l 296 0 l 296 637 l 0 637 l 0 0 m 974 0 l 1270 0 l 1270 641 l 974 771 l 974 0 m 0 971 l 0 675 l 455 675 l 936 464 l 936 787 l 517 971 l 0 971 z "},"o":{"ha":1317,"x_min":0,"x_max":1274,"o":"m 0 974 l 0 336 l 298 336 l 298 676 l 1274 676 l 1274 974 l 0 974 m 977 638 l 977 298 l 0 298 l 0 0 l 1274 0 l 1274 638 l 977 638 z "},"p":{"ha":1317,"x_min":0,"x_max":1274,"o":"m 0 638 l 0 0 l 298 0 l 298 298 l 537 298 l 833 593 l 298 593 l 298 638 l 0 638 m 0 974 l 0 676 l 298 676 l 298 679 l 972 679 l 887 593 l 886 593 l 591 298 l 1012 298 l 1274 559 l 1274 974 l 0 974 z "},"q":{"ha":1317,"x_min":0,"x_max":1272,"o":"m 1155 297 l 858 0 l 1272 0 l 1272 297 l 1155 297 m 975 592 l 975 591 l 680 297 l 297 297 l 297 637 l 0 637 l 0 0 l 804 0 l 1101 297 l 1100 297 l 1215 412 l 1272 468 l 1272 888 l 975 592 m 0 972 l 0 675 l 975 675 l 975 646 l 1272 943 l 1272 972 l 0 972 z "},"r":{"ha":1324,"x_min":0,"x_max":1280,"o":"m 0 636 l 0 0 l 297 0 l 297 297 l 564 297 l 861 0 l 1280 0 l 983 297 l 983 297 l 689 591 l 297 591 l 297 636 l 0 636 m 0 971 l 0 675 l 297 675 l 297 677 l 970 677 l 884 591 l 743 591 l 1023 311 l 1270 558 l 1270 971 l 0 971 z "},"s":{"ha":1322,"x_min":0,"x_max":1272,"o":"m 426 971 l 130 675 l 1272 675 l 1272 971 l 426 971 m 92 636 l 2 546 l 2 336 l 211 336 l 212 336 l 212 336 l 763 336 l 724 297 l 427 0 l 847 0 l 1272 425 l 1272 633 l 509 633 l 512 636 l 92 636 m 0 297 l 0 0 l 373 0 l 669 297 l 0 297 z "},"t":{"ha":1322,"x_min":0,"x_max":1277,"o":"m 489 0 l 787 0 l 787 637 l 489 637 l 489 0 m 0 675 l 1277 675 l 1277 974 l 0 974 l 0 675 z "},"u":{"ha":1317,"x_min":0,"x_max":1271,"o":"m 975 335 l 1271 335 l 1271 972 l 975 972 l 975 335 m 0 675 l 297 675 l 297 972 l 0 972 l 0 675 m 0 637 l 0 0 l 1271 0 l 1271 297 l 297 297 l 297 637 l 0 637 z "},"v":{"ha":1312,"x_min":0,"x_max":1272,"o":"m 0 971 l 0 366 l 296 236 l 296 971 l 0 971 m 974 640 l 974 296 l 896 296 l 335 543 l 335 219 l 833 0 l 1270 0 l 1270 128 l 1272 132 l 1270 132 l 1270 640 l 974 640 m 1270 677 l 1270 971 l 974 971 l 974 677 l 1270 677 z "},"w":{"ha":1527,"x_min":0,"x_max":1478,"o":"m 0 970 l 0 692 l 296 562 l 296 970 l 0 970 m 1182 676 l 1478 676 l 1478 970 l 1182 970 l 1182 676 m 0 328 l 554 94 l 554 406 l 296 520 l 296 521 l 0 651 l 0 328 m 593 970 l 592 78 l 777 0 l 1478 0 l 1478 638 l 1182 638 l 1182 296 l 890 296 l 890 970 l 593 970 z "},"x":{"ha":1320,"x_min":0,"x_max":1275,"o":"m 0 975 l 0 715 l 385 715 l 298 802 l 298 975 l 0 975 m 2 677 l 191 488 l 1 297 l 0 297 l 0 264 l 0 264 l 0 0 l 298 0 l 298 173 l 369 244 l 368 245 l 761 638 l 461 638 l 423 677 l 2 677 m 977 975 l 977 801 l 815 638 l 814 638 l 513 336 l 815 336 l 977 174 l 977 0 l 1275 0 l 1275 293 l 1275 293 l 1275 297 l 1275 297 l 1275 298 l 1275 298 l 1274 298 l 1085 488 l 1274 677 l 1275 677 l 1275 677 l 1275 677 l 1275 677 l 1275 682 l 1275 682 l 1275 975 l 977 975 z "},"y":{"ha":1312,"x_min":0,"x_max":1270,"o":"m 0 971 l 0 713 l 383 713 l 296 799 l 296 971 l 0 971 m 974 971 l 974 798 l 820 644 l 820 339 l 935 339 l 1270 674 l 1270 674 l 1270 675 l 1270 675 l 1270 675 l 1270 679 l 1270 679 l 1270 971 l 974 971 m 1 675 l 336 339 l 488 339 l 488 0 l 782 0 l 782 636 l 460 636 l 421 675 l 1 675 z "},"z":{"ha":1320,"x_min":0,"x_max":1273,"o":"m 502 297 l 204 0 l 1273 0 l 1273 297 l 502 297 m 784 637 l 779 633 l 362 633 l 27 297 l 0 271 l 0 0 l 151 0 l 448 297 l 448 297 l 486 336 l 903 336 l 1204 637 l 784 637 m 0 973 l 0 676 l 823 676 l 822 675 l 1242 675 l 1243 676 l 1273 706 l 1273 973 l 0 973 z "},"{":{"ha":798,"x_min":0,"x_max":753,"o":"m 334 1009 l 192 867 l 193 866 l 192 866 l 192 674 l 1 487 l 0 487 l 1 486 l 0 485 l 1 485 l 192 298 l 192 105 l 195 105 l 334 -34 l 753 -34 l 488 231 l 488 359 l 359 485 l 358 485 l 359 486 l 358 487 l 359 487 l 488 614 l 488 745 l 753 1009 l 334 1009 z "},"|":{"ha":362,"x_min":0,"x_max":298,"o":"m 298 1009 l 0 1009 l 0 -37 l 298 -37 l 298 1009 z "},"}":{"ha":798,"x_min":0,"x_max":753,"o":"m 0 1009 l 265 745 l 265 614 l 393 487 l 395 487 l 395 486 l 395 485 l 393 485 l 265 359 l 265 231 l 0 -34 l 420 -34 l 559 105 l 562 105 l 562 298 l 751 485 l 753 485 l 753 486 l 753 487 l 751 487 l 562 674 l 562 866 l 561 866 l 562 867 l 420 1009 l 0 1009 z "},"~":{"ha":940,"x_min":0,"x_max":892,"o":"m 892 758 l 601 630 l 228 630 l 0 530 l 0 205 l 292 333 l 297 333 l 297 332 l 663 332 l 892 433 l 892 758 z "},"¡":{"ha":456,"x_min":0,"x_max":298,"o":"m 298 974 l 0 974 l 0 676 l 298 676 l 298 974 m 298 0 l 298 548 l 149 641 l 0 548 l 0 0 l 298 0 z "},"¢":{"ha":1510,"x_min":-1,"x_max":1462,"o":"m 337 334 l 337 446 l 537 646 l 861 971 l 442 971 l 41 570 l 41 334 l 337 334 m 1311 0 l 1311 296 l 751 296 l 1128 672 l 1311 672 l 1311 855 l 1462 1006 l 1461 1007 l 1043 1007 l 1007 971 l 912 971 l 913 970 l 616 672 l 708 672 l 332 296 l 41 296 l 41 5 l -1 -37 l 418 -37 l 455 0 l 1311 0 z "},"£":{"ha":1321,"x_min":0,"x_max":1272,"o":"m 450 972 l 344 866 l 277 799 l 154 676 l 637 676 l 637 675 l 686 675 l 826 534 l 826 516 l 1123 516 l 1123 657 l 808 972 l 450 972 m 149 638 l 149 591 l 66 591 l 66 399 l 149 399 l 149 297 l 0 297 l 0 0 l 446 0 l 446 399 l 728 399 l 728 591 l 489 591 l 535 638 l 149 638 m 484 0 l 1272 0 l 1272 297 l 484 297 l 484 0 z "},"¤":{"ha":1021,"x_min":0,"x_max":971,"o":"m 571 680 l 688 563 l 688 399 l 571 283 l 407 283 l 291 399 l 291 563 l 407 680 l 571 680 m 409 772 l 213 971 l 3 761 l 199 564 l 199 408 l 0 210 l 210 0 l 408 198 l 563 198 l 762 0 l 971 210 l 772 409 l 772 563 l 968 761 l 758 971 l 562 772 l 409 772 z "},"¥":{"ha":1322,"x_min":0,"x_max":1270,"o":"m 0 971 l 0 713 l 383 713 l 296 799 l 296 971 l 0 971 m 460 636 l 421 675 l 1 675 l 40 636 l 0 636 l 0 425 l 251 425 l 336 339 l 488 339 l 488 332 l 0 332 l 0 121 l 488 121 l 488 0 l 782 0 l 782 121 l 1267 121 l 1267 332 l 782 332 l 782 425 l 820 425 l 820 339 l 935 339 l 1020 425 l 1267 425 l 1267 636 l 1232 636 l 1270 674 l 1270 674 l 1270 971 l 974 971 l 974 798 l 820 644 l 820 636 l 460 636 z "},"¿":{"ha":1315,"x_min":0,"x_max":1272,"o":"m 785 972 l 488 972 l 488 675 l 785 675 l 785 972 m 1272 0 l 975 297 l 307 297 l 297 307 l 297 333 l 300 336 l 779 336 l 779 633 l 177 633 l 0 456 l 0 184 l 184 0 l 1272 0 z "},"À":{"ha":1322,"x_min":0,"x_max":1274,"o":"m 976 637 l 976 0 l 1273 0 l 1273 637 l 976 637 m 0 297 l 0 0 l 937 0 l 937 297 l 0 297 m 836 973 l 0 606 l 0 336 l 297 336 l 297 412 l 898 676 l 1273 676 l 1273 841 l 1274 842 l 1273 845 l 1273 973 l 836 973 m 412 1180 l 584 1008 l 857 1008 l 685 1180 l 412 1180 z "},"Á":{"ha":1317,"x_min":0,"x_max":1274,"o":"m 976 637 l 976 0 l 1273 0 l 1273 637 l 976 637 m 0 297 l 0 0 l 937 0 l 937 297 l 0 297 m 836 973 l 0 606 l 0 336 l 297 336 l 297 412 l 898 676 l 1273 676 l 1273 841 l 1274 842 l 1273 845 l 1273 973 l 836 973 m 584 1180 l 412 1008 l 685 1008 l 857 1180 l 584 1180 z "},"Â":{"ha":1317,"x_min":0,"x_max":1272,"o":"m 973 636 l 973 0 l 1270 0 l 1270 636 l 973 636 m 0 296 l 0 0 l 935 0 l 935 296 l 0 296 m 833 971 l 0 605 l 0 334 l 296 334 l 296 411 l 896 674 l 1270 674 l 1270 839 l 1272 840 l 1270 843 l 1270 971 l 833 971 m 584 1180 l 412 1008 l 857 1008 l 685 1180 l 584 1180 z "},"Ã":{"ha":1320,"x_min":0,"x_max":1274,"o":"m 976 637 l 976 0 l 1273 0 l 1273 637 l 976 637 m 0 297 l 0 0 l 938 0 l 938 297 l 0 297 m 836 973 l 0 606 l 0 336 l 297 336 l 297 412 l 898 676 l 1273 676 l 1273 841 l 1274 842 l 1273 845 l 1273 973 l 836 973 m 817 1184 l 685 1159 l 486 1159 l 371 1124 l 371 1012 l 479 1034 l 685 1034 l 817 1067 l 817 1184 z "},"Ä":{"ha":1312,"x_min":0,"x_max":1272,"o":"m 973 636 l 973 0 l 1270 0 l 1270 636 l 973 636 m 0 296 l 0 0 l 935 0 l 935 296 l 0 296 m 833 971 l 0 605 l 0 334 l 296 334 l 296 411 l 896 674 l 1270 674 l 1270 839 l 1272 840 l 1270 843 l 1270 971 l 833 971 m 370 1009 l 574 1009 l 574 1181 l 370 1181 l 370 1009 m 612 1009 l 815 1009 l 815 1181 l 612 1181 l 612 1009 z "},"Å":{"ha":1318,"x_min":0,"x_max":1272,"o":"m 973 636 l 973 0 l 1270 0 l 1270 636 l 973 636 m 0 296 l 0 0 l 935 0 l 935 296 l 0 296 m 833 971 l 0 605 l 0 334 l 296 334 l 296 411 l 896 674 l 1270 674 l 1270 839 l 1272 840 l 1270 843 l 1270 971 l 833 971 m 488 1009 l 784 1009 l 784 1181 l 488 1181 l 488 1009 m 559 1140 l 713 1140 l 713 1050 l 559 1050 l 559 1140 z "},"Æ":{"ha":1961,"x_min":0,"x_max":1925,"o":"m 0 295 l 0 -3 l 776 -3 l 776 295 l 0 295 m 673 971 l 0 604 l 0 333 l 298 333 l 298 410 l 736 673 l 1925 673 l 1925 971 l 673 971 m 814 635 l 814 -3 l 1925 -3 l 1925 295 l 1112 295 l 1112 635 l 814 635 m 1149 336 l 1628 336 l 1628 633 l 1149 633 l 1149 336 z "},"Ç":{"ha":1322,"x_min":0,"x_max":1273,"o":"m 0 971 l 0 674 l 1273 674 l 1273 971 l 0 971 m 0 635 l 0 400 l 402 -2 l 536 -2 l 485 -64 l 694 -64 l 694 -128 l 485 -128 l 485 -174 l 782 -174 l 782 -28 l 610 -28 l 633 -2 l 823 -2 l 497 323 l 497 323 l 297 524 l 297 635 l 0 635 m 576 298 l 875 -1 l 873 -2 l 1273 -2 l 1273 298 l 576 298 z "},"È":{"ha":1313,"x_min":0,"x_max":1269,"o":"m 412 1180 l 584 1008 l 857 1008 l 685 1180 l 412 1180 m 0 970 l 0 673 l 1269 673 l 1269 970 l 0 970 m 0 635 l 0 0 l 1269 0 l 1269 296 l 296 296 l 296 635 l 0 635 m 334 337 l 972 337 l 972 633 l 334 633 l 334 337 z "},"É":{"ha":1312,"x_min":0,"x_max":1269,"o":"m 584 1180 l 412 1008 l 685 1008 l 857 1180 l 584 1180 m 0 970 l 0 673 l 1269 673 l 1269 970 l 0 970 m 0 635 l 0 0 l 1269 0 l 1269 296 l 296 296 l 296 635 l 0 635 m 334 337 l 972 337 l 972 633 l 334 633 l 334 337 z "},"Ê":{"ha":1310,"x_min":0,"x_max":1270,"o":"m 585 1181 l 412 1009 l 858 1009 l 686 1181 l 585 1181 m 0 971 l 0 674 l 1270 674 l 1270 971 l 0 971 m 0 636 l 0 0 l 1270 0 l 1270 296 l 296 296 l 296 636 l 0 636 m 334 337 l 973 337 l 973 633 l 334 633 l 334 337 z "},"Ë":{"ha":1305,"x_min":0,"x_max":1270,"o":"m 412 1010 l 616 1010 l 616 1181 l 412 1181 l 412 1010 m 654 1010 l 857 1010 l 857 1181 l 654 1181 l 654 1010 m 0 970 l 0 674 l 1270 674 l 1270 970 l 0 970 m 0 636 l 0 0 l 1270 0 l 1270 296 l 296 296 l 296 636 l 0 636 m 334 337 l 973 337 l 973 633 l 334 633 l 334 337 z "},"Ì":{"ha":355,"x_min":-75,"x_max":372,"o":"m -75 1184 l 98 1012 l 372 1012 l 199 1184 l -75 1184 m 0 676 l 298 676 l 298 974 l 0 974 l 0 676 m 0 0 l 298 0 l 298 638 l 0 638 l 0 0 z "},"Í":{"ha":355,"x_min":-75,"x_max":372,"o":"m 98 1184 l -75 1012 l 199 1012 l 372 1184 l 98 1184 m 0 676 l 298 676 l 298 974 l 0 974 l 0 676 m 0 0 l 298 0 l 298 638 l 0 638 l 0 0 z "},"Î":{"ha":349,"x_min":-75,"x_max":372,"o":"m 372 1012 l 199 1184 l 98 1184 l -75 1012 l 372 1012 m 0 676 l 298 676 l 298 974 l 0 974 l 0 676 m 0 0 l 298 0 l 298 638 l 0 638 l 0 0 z "},"Ï":{"ha":355,"x_min":-75,"x_max":370,"o":"m -75 1008 l 129 1008 l 129 1179 l -75 1179 l -75 1008 m 167 1008 l 370 1008 l 370 1179 l 167 1179 l 167 1008 m 0 676 l 298 676 l 298 974 l 0 974 l 0 676 m 0 0 l 298 0 l 298 638 l 0 638 l 0 0 z "},"Ð":{"ha":1441,"x_min":0,"x_max":1392,"o":"m 123 970 l 123 631 l 0 631 l 0 335 l 123 335 l 123 334 l 419 334 l 419 335 l 822 335 l 822 631 l 419 631 l 419 674 l 1286 674 l 989 970 l 123 970 m 905 636 l 1096 445 l 1096 444 l 1099 441 l 1096 296 l 123 296 l 123 0 l 1392 0 l 1392 568 l 1324 636 l 905 636 z "},"Ñ":{"ha":1310,"x_min":0,"x_max":1270,"o":"m 0 0 l 296 0 l 296 637 l 0 637 l 0 0 m 974 0 l 1270 0 l 1270 641 l 974 771 l 974 0 m 0 971 l 0 675 l 455 675 l 936 464 l 936 787 l 517 971 l 0 971 m 857 1181 l 726 1156 l 526 1156 l 412 1120 l 412 1009 l 521 1031 l 726 1031 l 857 1064 l 857 1181 z "},"Ò":{"ha":1310,"x_min":0,"x_max":1269,"o":"m 412 1180 l 584 1008 l 857 1008 l 685 1180 l 412 1180 m 0 970 l 0 673 l 972 673 l 972 334 l 1269 334 l 1269 970 l 0 970 m 0 635 l 0 0 l 1269 0 l 1269 296 l 296 296 l 296 635 l 0 635 z "},"Ó":{"ha":1312,"x_min":0,"x_max":1269,"o":"m 584 1180 l 412 1008 l 685 1008 l 857 1180 l 584 1180 m 0 970 l 0 673 l 972 673 l 972 334 l 1269 334 l 1269 970 l 0 970 m 0 635 l 0 0 l 1269 0 l 1269 296 l 296 296 l 296 635 l 0 635 z "},"Ô":{"ha":1316,"x_min":0,"x_max":1269,"o":"m 584 1180 l 412 1008 l 857 1008 l 685 1180 l 584 1180 m 0 970 l 0 673 l 972 673 l 972 334 l 1269 334 l 1269 970 l 0 970 m 0 635 l 0 0 l 1269 0 l 1269 296 l 296 296 l 296 635 l 0 635 z "},"Õ":{"ha":1312,"x_min":0,"x_max":1270,"o":"m 857 1181 l 726 1156 l 526 1156 l 412 1120 l 412 1009 l 521 1031 l 726 1031 l 857 1064 l 857 1181 m 0 970 l 0 674 l 973 674 l 973 334 l 1270 334 l 1270 970 l 0 970 m 0 636 l 0 0 l 1270 0 l 1270 296 l 296 296 l 296 636 l 0 636 z "},"Ö":{"ha":1318,"x_min":0,"x_max":1270,"o":"m 412 1009 l 616 1009 l 616 1181 l 412 1181 l 412 1009 m 654 1009 l 858 1009 l 858 1181 l 654 1181 l 654 1009 m 0 971 l 0 674 l 974 674 l 974 334 l 1270 334 l 1270 971 l 0 971 m 0 636 l 0 0 l 1270 0 l 1270 296 l 297 296 l 297 636 l 0 636 z "},"×":{"ha":1016,"x_min":0,"x_max":971,"o":"m 758 971 l 486 695 l 213 971 l 3 761 l 276 486 l 0 210 l 210 0 l 486 275 l 762 0 l 971 210 l 696 486 l 968 761 l 758 971 z "},"Ø":{"ha":1307,"x_min":-68,"x_max":1327,"o":"m 973 332 l 1270 332 l 1270 859 l 973 562 l 973 332 m 556 672 l 853 968 l 0 968 l 0 672 l 556 672 m 706 294 l 410 -2 l 1270 -2 l 1270 294 l 706 294 m 296 634 l 0 634 l 0 116 l 296 412 l 296 634 m 351 -4 l 353 -2 l 356 -2 l 652 294 l 932 575 l 1270 912 l 1270 914 l 1327 971 l 907 971 l -68 -4 l 351 -4 z "},"Ù":{"ha":1315,"x_min":0,"x_max":1271,"o":"m 975 335 l 1271 335 l 1271 972 l 975 972 l 975 335 m 0 675 l 297 675 l 297 972 l 0 972 l 0 675 m 0 637 l 0 0 l 1271 0 l 1271 297 l 297 297 l 297 637 l 0 637 m 412 1180 l 584 1008 l 857 1008 l 685 1180 l 412 1180 z "},"Ú":{"ha":1315,"x_min":0,"x_max":1271,"o":"m 975 335 l 1271 335 l 1271 972 l 975 972 l 975 335 m 0 675 l 297 675 l 297 972 l 0 972 l 0 675 m 0 637 l 0 0 l 1271 0 l 1271 297 l 297 297 l 297 637 l 0 637 m 583 1180 l 412 1008 l 684 1008 l 857 1180 l 583 1180 z "},"Û":{"ha":1320,"x_min":0,"x_max":1271,"o":"m 975 335 l 1271 335 l 1271 972 l 975 972 l 975 335 m 0 675 l 297 675 l 297 972 l 0 972 l 0 675 m 0 637 l 0 0 l 1271 0 l 1271 297 l 297 297 l 297 637 l 0 637 m 584 1180 l 412 1008 l 857 1008 l 685 1180 l 584 1180 z "},"Ü":{"ha":1317,"x_min":0,"x_max":1271,"o":"m 975 335 l 1271 335 l 1271 972 l 975 972 l 975 335 m 0 675 l 297 675 l 297 972 l 0 972 l 0 675 m 0 637 l 0 0 l 1271 0 l 1271 297 l 297 297 l 297 637 l 0 637 m 412 1010 l 616 1010 l 616 1181 l 412 1181 l 412 1010 m 654 1010 l 857 1010 l 857 1181 l 654 1181 l 654 1010 z "},"Ý":{"ha":1315,"x_min":0,"x_max":1270,"o":"m 0 971 l 0 713 l 383 713 l 296 799 l 296 971 l 0 971 m 974 971 l 974 798 l 820 644 l 820 339 l 935 339 l 1270 674 l 1270 674 l 1270 675 l 1270 675 l 1270 675 l 1270 679 l 1270 679 l 1270 971 l 974 971 m 1 675 l 336 339 l 488 339 l 488 0 l 782 0 l 782 636 l 460 636 l 421 675 l 1 675 m 584 1180 l 412 1008 l 685 1008 l 857 1180 l 584 1180 z "},"Þ":{"ha":760,"x_min":0,"x_max":1272,"o":"m 0 972 l 0 528 l 404 528 l 404 526 l 938 526 l 946 519 l 1156 729 l 1118 766 l 1061 823 l 297 823 l 297 972 l 0 972 m 973 492 l 973 492 l 930 450 l 297 450 l 297 490 l 0 490 l 0 0 l 297 0 l 297 153 l 1054 153 l 1272 370 l 1272 613 l 1183 702 l 973 492 z "},"ß":{"ha":1315,"x_min":0,"x_max":1267,"o":"m 0 -33 l 296 -33 l 296 637 l 0 637 l 0 -33 m 0 971 l 0 675 l 904 675 l 940 639 l 349 639 l 349 343 l 890 343 l 1267 720 l 1267 730 l 1026 971 l 0 971 m 944 343 l 945 343 l 900 298 l 349 298 l 645 3 l 1023 3 l 1267 248 l 1267 394 l 1176 486 l 1267 578 l 1267 667 l 944 343 z "},"à":{"ha":1312,"x_min":0,"x_max":1274,"o":"m 976 637 l 976 0 l 1273 0 l 1273 637 l 976 637 m 0 297 l 0 0 l 937 0 l 937 297 l 0 297 m 836 973 l 0 606 l 0 336 l 297 336 l 297 412 l 898 676 l 1273 676 l 1273 841 l 1274 842 l 1273 845 l 1273 973 l 836 973 m 412 1180 l 584 1008 l 857 1008 l 685 1180 l 412 1180 z "},"á":{"ha":1312,"x_min":0,"x_max":1274,"o":"m 976 637 l 976 0 l 1273 0 l 1273 637 l 976 637 m 0 297 l 0 0 l 937 0 l 937 297 l 0 297 m 836 973 l 0 606 l 0 336 l 297 336 l 297 412 l 898 676 l 1273 676 l 1273 841 l 1274 842 l 1273 845 l 1273 973 l 836 973 m 584 1180 l 412 1008 l 685 1008 l 857 1180 l 584 1180 z "},"â":{"ha":1312,"x_min":0,"x_max":1272,"o":"m 973 636 l 973 0 l 1270 0 l 1270 636 l 973 636 m 0 296 l 0 0 l 935 0 l 935 296 l 0 296 m 833 971 l 0 605 l 0 334 l 296 334 l 296 411 l 896 674 l 1270 674 l 1270 839 l 1272 840 l 1270 843 l 1270 971 l 833 971 m 584 1180 l 412 1008 l 857 1008 l 685 1180 l 584 1180 z "},"ã":{"ha":1317,"x_min":0,"x_max":1274,"o":"m 976 637 l 976 0 l 1273 0 l 1273 637 l 976 637 m 0 297 l 0 0 l 938 0 l 938 297 l 0 297 m 836 973 l 0 606 l 0 336 l 297 336 l 297 412 l 898 676 l 1273 676 l 1273 841 l 1274 842 l 1273 845 l 1273 973 l 836 973 m 817 1184 l 685 1159 l 486 1159 l 371 1124 l 371 1012 l 479 1034 l 685 1034 l 817 1067 l 817 1184 z "},"ä":{"ha":1312,"x_min":0,"x_max":1272,"o":"m 973 636 l 973 0 l 1270 0 l 1270 636 l 973 636 m 0 296 l 0 0 l 935 0 l 935 296 l 0 296 m 833 971 l 0 605 l 0 334 l 296 334 l 296 411 l 896 674 l 1270 674 l 1270 839 l 1272 840 l 1270 843 l 1270 971 l 833 971 m 370 1009 l 574 1009 l 574 1181 l 370 1181 l 370 1009 m 612 1009 l 815 1009 l 815 1181 l 612 1181 l 612 1009 z "},"å":{"ha":1315,"x_min":0,"x_max":1272,"o":"m 973 636 l 973 0 l 1270 0 l 1270 636 l 973 636 m 0 296 l 0 0 l 935 0 l 935 296 l 0 296 m 833 971 l 0 605 l 0 334 l 296 334 l 296 411 l 896 674 l 1270 674 l 1270 839 l 1272 840 l 1270 843 l 1270 971 l 833 971 m 488 1009 l 784 1009 l 784 1181 l 488 1181 l 488 1009 m 559 1140 l 713 1140 l 713 1050 l 559 1050 l 559 1140 z "},"æ":{"ha":1963,"x_min":0,"x_max":1925,"o":"m 0 298 l 0 0 l 776 0 l 776 298 l 0 298 m 673 974 l 0 607 l 0 336 l 298 336 l 298 412 l 736 676 l 1925 676 l 1925 974 l 673 974 m 814 638 l 814 0 l 1925 0 l 1925 298 l 1112 298 l 1112 638 l 814 638 m 1149 338 l 1628 338 l 1628 635 l 1149 635 l 1149 338 z "},"ç":{"ha":1322,"x_min":0,"x_max":1273,"o":"m 0 971 l 0 674 l 1273 674 l 1273 971 l 0 971 m 0 635 l 0 400 l 402 -2 l 536 -2 l 485 -64 l 694 -64 l 694 -128 l 485 -128 l 485 -174 l 782 -174 l 782 -28 l 610 -28 l 633 -2 l 823 -2 l 497 323 l 497 323 l 297 524 l 297 635 l 0 635 m 576 298 l 875 -1 l 873 -2 l 1273 -2 l 1273 298 l 576 298 z "},"è":{"ha":1315,"x_min":0,"x_max":1269,"o":"m 412 1180 l 584 1008 l 857 1008 l 685 1180 l 412 1180 m 0 970 l 0 673 l 1269 673 l 1269 970 l 0 970 m 0 635 l 0 0 l 1269 0 l 1269 296 l 296 296 l 296 635 l 0 635 m 334 337 l 972 337 l 972 633 l 334 633 l 334 337 z "},"é":{"ha":1320,"x_min":0,"x_max":1269,"o":"m 584 1180 l 412 1008 l 685 1008 l 857 1180 l 584 1180 m 0 970 l 0 673 l 1269 673 l 1269 970 l 0 970 m 0 635 l 0 0 l 1269 0 l 1269 296 l 296 296 l 296 635 l 0 635 m 334 337 l 972 337 l 972 633 l 334 633 l 334 337 z "},"ê":{"ha":1312,"x_min":0,"x_max":1270,"o":"m 585 1181 l 412 1009 l 858 1009 l 686 1181 l 585 1181 m 0 971 l 0 674 l 1270 674 l 1270 971 l 0 971 m 0 636 l 0 0 l 1270 0 l 1270 296 l 296 296 l 296 636 l 0 636 m 334 337 l 973 337 l 973 633 l 334 633 l 334 337 z "},"ë":{"ha":1315,"x_min":0,"x_max":1270,"o":"m 412 1010 l 616 1010 l 616 1181 l 412 1181 l 412 1010 m 654 1010 l 857 1010 l 857 1181 l 654 1181 l 654 1010 m 0 970 l 0 674 l 1270 674 l 1270 970 l 0 970 m 0 636 l 0 0 l 1270 0 l 1270 296 l 296 296 l 296 636 l 0 636 m 334 337 l 973 337 l 973 633 l 334 633 l 334 337 z "},"ì":{"ha":349,"x_min":-75,"x_max":372,"o":"m -75 1184 l 98 1012 l 372 1012 l 199 1184 l -75 1184 m 0 676 l 298 676 l 298 974 l 0 974 l 0 676 m 0 0 l 298 0 l 298 638 l 0 638 l 0 0 z "},"í":{"ha":349,"x_min":-75,"x_max":372,"o":"m 98 1184 l -75 1012 l 199 1012 l 372 1184 l 98 1184 m 0 676 l 298 676 l 298 974 l 0 974 l 0 676 m 0 0 l 298 0 l 298 638 l 0 638 l 0 0 z "},"î":{"ha":349,"x_min":-75,"x_max":372,"o":"m 372 1012 l 199 1184 l 98 1184 l -75 1012 l 372 1012 m 0 676 l 298 676 l 298 974 l 0 974 l 0 676 m 0 0 l 298 0 l 298 638 l 0 638 l 0 0 z "},"ï":{"ha":349,"x_min":-75,"x_max":370,"o":"m -75 1008 l 129 1008 l 129 1179 l -75 1179 l -75 1008 m 167 1008 l 370 1008 l 370 1179 l 167 1179 l 167 1008 m 0 676 l 298 676 l 298 974 l 0 974 l 0 676 m 0 0 l 298 0 l 298 638 l 0 638 l 0 0 z "},"ð":{"ha":1441,"x_min":0,"x_max":1392,"o":"m 123 970 l 123 631 l 0 631 l 0 335 l 123 335 l 123 334 l 419 334 l 419 335 l 822 335 l 822 631 l 419 631 l 419 674 l 1286 674 l 989 970 l 123 970 m 905 636 l 1096 445 l 1096 444 l 1099 441 l 1096 296 l 123 296 l 123 0 l 1392 0 l 1392 568 l 1324 636 l 905 636 z "},"ñ":{"ha":1312,"x_min":0,"x_max":1270,"o":"m 0 0 l 296 0 l 296 637 l 0 637 l 0 0 m 974 0 l 1270 0 l 1270 641 l 974 771 l 974 0 m 0 971 l 0 675 l 455 675 l 936 464 l 936 787 l 517 971 l 0 971 m 857 1181 l 726 1156 l 526 1156 l 412 1120 l 412 1009 l 521 1031 l 726 1031 l 857 1064 l 857 1181 z "},"ò":{"ha":1312,"x_min":0,"x_max":1269,"o":"m 412 1180 l 584 1008 l 857 1008 l 685 1180 l 412 1180 m 0 970 l 0 673 l 972 673 l 972 334 l 1269 334 l 1269 970 l 0 970 m 0 635 l 0 0 l 1269 0 l 1269 296 l 296 296 l 296 635 l 0 635 z "},"ó":{"ha":1312,"x_min":0,"x_max":1269,"o":"m 584 1180 l 412 1008 l 685 1008 l 857 1180 l 584 1180 m 0 970 l 0 673 l 972 673 l 972 334 l 1269 334 l 1269 970 l 0 970 m 0 635 l 0 0 l 1269 0 l 1269 296 l 296 296 l 296 635 l 0 635 z "},"ô":{"ha":1312,"x_min":0,"x_max":1269,"o":"m 584 1180 l 412 1008 l 857 1008 l 685 1180 l 584 1180 m 0 970 l 0 673 l 972 673 l 972 334 l 1269 334 l 1269 970 l 0 970 m 0 635 l 0 0 l 1269 0 l 1269 296 l 296 296 l 296 635 l 0 635 z "},"õ":{"ha":2956,"x_min":0,"x_max":1270,"o":"m 857 1181 l 726 1156 l 526 1156 l 412 1120 l 412 1009 l 521 1031 l 726 1031 l 857 1064 l 857 1181 m 0 970 l 0 674 l 973 674 l 973 334 l 1270 334 l 1270 970 l 0 970 m 0 636 l 0 0 l 1270 0 l 1270 296 l 296 296 l 296 636 l 0 636 z "},"ö":{"ha":1320,"x_min":0,"x_max":1270,"o":"m 412 1009 l 616 1009 l 616 1181 l 412 1181 l 412 1009 m 654 1009 l 858 1009 l 858 1181 l 654 1181 l 654 1009 m 0 971 l 0 674 l 974 674 l 974 334 l 1270 334 l 1270 971 l 0 971 m 0 636 l 0 0 l 1270 0 l 1270 296 l 297 296 l 297 636 l 0 636 z "},"÷":{"ha":1028,"x_min":0,"x_max":971,"o":"m 0 629 l 0 333 l 971 333 l 971 629 l 0 629 m 342 677 l 639 677 l 639 974 l 342 974 l 342 677 m 342 0 l 639 0 l 639 297 l 342 297 l 342 0 z "},"ø":{"ha":1310,"x_min":-68,"x_max":1327,"o":"m 973 332 l 1270 332 l 1270 859 l 973 562 l 973 332 m 556 672 l 853 968 l 0 968 l 0 672 l 556 672 m 706 294 l 410 -2 l 1270 -2 l 1270 294 l 706 294 m 296 634 l 0 634 l 0 116 l 296 412 l 296 634 m 351 -4 l 353 -2 l 356 -2 l 652 294 l 932 575 l 1270 912 l 1270 914 l 1327 971 l 907 971 l -68 -4 l 351 -4 z "},"ù":{"ha":1320,"x_min":0,"x_max":1271,"o":"m 975 335 l 1271 335 l 1271 972 l 975 972 l 975 335 m 0 675 l 297 675 l 297 972 l 0 972 l 0 675 m 0 637 l 0 0 l 1271 0 l 1271 297 l 297 297 l 297 637 l 0 637 m 412 1180 l 584 1008 l 857 1008 l 685 1180 l 412 1180 z "},"ú":{"ha":1320,"x_min":0,"x_max":1271,"o":"m 975 335 l 1271 335 l 1271 972 l 975 972 l 975 335 m 0 675 l 297 675 l 297 972 l 0 972 l 0 675 m 0 637 l 0 0 l 1271 0 l 1271 297 l 297 297 l 297 637 l 0 637 m 583 1180 l 412 1008 l 684 1008 l 857 1180 l 583 1180 z "},"û":{"ha":1320,"x_min":0,"x_max":1271,"o":"m 975 335 l 1271 335 l 1271 972 l 975 972 l 975 335 m 0 675 l 297 675 l 297 972 l 0 972 l 0 675 m 0 637 l 0 0 l 1271 0 l 1271 297 l 297 297 l 297 637 l 0 637 m 584 1180 l 412 1008 l 857 1008 l 685 1180 l 584 1180 z "},"ü":{"ha":1320,"x_min":0,"x_max":1271,"o":"m 975 335 l 1271 335 l 1271 972 l 975 972 l 975 335 m 0 675 l 297 675 l 297 972 l 0 972 l 0 675 m 0 637 l 0 0 l 1271 0 l 1271 297 l 297 297 l 297 637 l 0 637 m 412 1010 l 616 1010 l 616 1181 l 412 1181 l 412 1010 m 654 1010 l 857 1010 l 857 1181 l 654 1181 l 654 1010 z "},"ý":{"ha":1315,"x_min":0,"x_max":1270,"o":"m 0 971 l 0 713 l 383 713 l 296 799 l 296 971 l 0 971 m 974 971 l 974 798 l 820 644 l 820 339 l 935 339 l 1270 674 l 1270 674 l 1270 675 l 1270 675 l 1270 675 l 1270 679 l 1270 679 l 1270 971 l 974 971 m 1 675 l 336 339 l 488 339 l 488 0 l 782 0 l 782 636 l 460 636 l 421 675 l 1 675 m 584 1180 l 412 1008 l 685 1008 l 857 1180 l 584 1180 z "},"þ":{"ha":1320,"x_min":0,"x_max":1272,"o":"m 0 972 l 0 528 l 404 528 l 404 526 l 938 526 l 946 519 l 1156 729 l 1118 766 l 1061 823 l 297 823 l 297 972 l 0 972 m 973 492 l 973 492 l 930 450 l 297 450 l 297 490 l 0 490 l 0 0 l 297 0 l 297 153 l 1054 153 l 1272 370 l 1272 613 l 1183 702 l 973 492 z "},"ÿ":{"ha":1317,"x_min":0,"x_max":1270,"o":"m 0 971 l 0 713 l 383 713 l 296 799 l 296 971 l 0 971 m 974 971 l 974 798 l 820 644 l 820 339 l 935 339 l 1270 674 l 1270 674 l 1270 675 l 1270 675 l 1270 675 l 1270 679 l 1270 679 l 1270 971 l 974 971 m 1 675 l 336 339 l 488 339 l 488 0 l 782 0 l 782 636 l 460 636 l 421 675 l 1 675 m 412 1010 l 616 1010 l 616 1181 l 412 1181 l 412 1010 m 654 1010 l 857 1010 l 857 1181 l 654 1181 l 654 1010 z "},"ˆ":{"ha":499,"x_min":-1,"x_max":445,"o":"m 445 1012 l 273 1184 l 171 1184 l -1 1012 l 445 1012 z "},"ˇ":{"ha":499,"x_min":-1,"x_max":445,"o":"m -1 1184 l 171 1012 l 273 1012 l 445 1184 l -1 1184 z "},"ˉ":{"ha":496,"x_min":-1,"x_max":444,"o":"m -1 1008 l 444 1008 l 444 1179 l -1 1179 l -1 1008 z "},"˘":{"ha":694,"x_min":-1,"x_max":444,"o":"m 444 1181 l 300 1141 l 143 1141 l -1 1181 l -1 1053 l 140 1009 l 304 1009 l 444 1053 l 444 1181 z "},"˙":{"ha":345,"x_min":0,"x_max":296,"o":"m 0 1008 l 296 1008 l 296 1179 l 0 1179 l 0 1008 z "},"˚":{"ha":349,"x_min":1,"x_max":297,"o":"m 1 1009 l 297 1009 l 297 1181 l 1 1181 l 1 1009 m 72 1140 l 226 1140 l 226 1050 l 72 1050 l 72 1140 z "},"˛":{"ha":332,"x_min":-1,"x_max":296,"o":"m 90 -1 l -1 -95 l -1 -168 l 242 -168 l 296 -101 l 128 -101 l 231 -1 l 90 -1 z "},"˜":{"ha":492,"x_min":-1,"x_max":444,"o":"m 444 1190 l 312 1164 l 113 1164 l -1 1128 l -1 1017 l 107 1040 l 312 1040 l 444 1072 l 444 1190 z "},"˝":{"ha":492,"x_min":0,"x_max":446,"o":"m 172 1181 l 0 1009 l 104 1009 l 277 1181 l 172 1181 m 342 1181 l 170 1009 l 273 1009 l 446 1181 l 342 1181 z "},"–":{"ha":848,"x_min":0,"x_max":785,"o":"m 0 629 l 0 333 l 785 333 l 785 629 l 0 629 z "},"—":{"ha":1389,"x_min":0,"x_max":1310,"o":"m 0 629 l 0 333 l 1310 333 l 1310 629 l 0 629 z "},"‘":{"ha":378,"x_min":0,"x_max":296,"o":"m 296 678 l 296 1010 l 0 884 l 0 678 l 296 678 z "},"’":{"ha":357,"x_min":0,"x_max":296,"o":"m 1 1010 l 0 678 l 296 804 l 296 1010 l 1 1010 z "},"‚":{"ha":357,"x_min":0,"x_max":296,"o":"m 1 298 l 0 -34 l 296 92 l 296 298 l 1 298 z "},"“":{"ha":724,"x_min":0,"x_max":665,"o":"m 665 678 l 665 1010 l 369 884 l 369 678 l 665 678 m 296 678 l 296 1010 l 0 884 l 0 678 l 296 678 z "},"”":{"ha":727,"x_min":0,"x_max":665,"o":"m 1 1010 l 0 678 l 296 804 l 296 1010 l 1 1010 m 370 1010 l 369 678 l 665 804 l 665 1010 l 370 1010 z "},"„":{"ha":722,"x_min":0,"x_max":665,"o":"m 1 298 l 0 -33 l 296 92 l 296 298 l 1 298 m 370 298 l 369 -33 l 665 92 l 665 298 l 370 298 z "},"•":{"ha":899,"x_min":0,"x_max":828,"o":"m 170 655 l 0 485 l 170 315 l 658 315 l 828 485 l 658 655 l 170 655 z "},"…":{"ha":1095,"x_min":0,"x_max":1027,"o":"m 0 0 l 297 0 l 297 297 l 0 297 l 0 0 m 362 0 l 659 0 l 659 297 l 362 297 l 362 0 m 730 0 l 1027 0 l 1027 297 l 730 297 l 730 0 z "},"€":{"ha":1433,"x_min":0,"x_max":1392,"o":"m 122 971 l 122 677 l 523 677 l 523 676 l 1392 676 l 1392 971 l 122 971 m 456 0 l 1392 0 l 1392 296 l 456 296 l 456 0 m 0 639 l 0 519 l 1096 519 l 1096 639 l 0 639 m 0 454 l 0 335 l 122 335 l 122 0 l 418 0 l 418 296 l 418 296 l 418 335 l 1096 335 l 1096 454 l 0 454 z "},"−":{"ha":1019,"x_min":0,"x_max":971,"o":"m 0 629 l 0 333 l 971 333 l 971 629 l 0 629 z "},"≈":{"ha":940,"x_min":0,"x_max":892,"o":"m 892 970 l 601 842 l 228 842 l 0 742 l 0 417 l 292 545 l 297 545 l 297 545 l 663 545 l 892 645 l 892 970 m 892 551 l 601 424 l 228 424 l 0 323 l 0 -1 l 292 127 l 297 127 l 297 126 l 663 126 l 892 227 l 892 551 z "},"":{"ha":728,"x_min":0,"x_max":0,"o":""},"":{"ha":733,"x_min":0,"x_max":0,"o":""},"Ā":{"ha":1317,"x_min":0,"x_max":1272,"o":"m 973 636 l 973 0 l 1270 0 l 1270 636 l 973 636 m 0 296 l 0 0 l 935 0 l 935 296 l 0 296 m 833 971 l 0 605 l 0 334 l 296 334 l 296 411 l 896 674 l 1270 674 l 1270 839 l 1272 840 l 1270 843 l 1270 971 l 833 971 m 412 1009 l 858 1009 l 858 1181 l 412 1181 l 412 1009 z "},"ā":{"ha":1312,"x_min":0,"x_max":1272,"o":"m 973 636 l 973 0 l 1270 0 l 1270 636 l 973 636 m 0 296 l 0 0 l 935 0 l 935 296 l 0 296 m 833 971 l 0 605 l 0 334 l 296 334 l 296 411 l 896 674 l 1270 674 l 1270 839 l 1272 840 l 1270 843 l 1270 971 l 833 971 m 370 1009 l 815 1009 l 815 1181 l 370 1181 l 370 1009 z "},"Ă":{"ha":1312,"x_min":0,"x_max":1272,"o":"m 973 636 l 973 0 l 1270 0 l 1270 636 l 973 636 m 0 296 l 0 0 l 935 0 l 935 296 l 0 296 m 833 971 l 0 605 l 0 334 l 296 334 l 296 411 l 896 674 l 1270 674 l 1270 839 l 1272 840 l 1270 843 l 1270 971 l 833 971 m 857 1180 l 713 1140 l 555 1140 l 412 1180 l 412 1051 l 553 1008 l 716 1008 l 857 1051 l 857 1180 z "},"ă":{"ha":1310,"x_min":0,"x_max":1272,"o":"m 973 636 l 973 0 l 1270 0 l 1270 636 l 973 636 m 0 296 l 0 0 l 935 0 l 935 296 l 0 296 m 833 971 l 0 605 l 0 334 l 296 334 l 296 411 l 896 674 l 1270 674 l 1270 839 l 1272 840 l 1270 843 l 1270 971 l 833 971 m 815 1181 l 671 1141 l 514 1141 l 370 1181 l 370 1053 l 511 1009 l 674 1009 l 815 1053 l 815 1181 z "},"Ą":{"ha":1312,"x_min":0,"x_max":1274,"o":"m 975 636 l 975 -1 l 1072 -1 l 975 -101 l 975 -174 l 1219 -174 l 1272 -107 l 1105 -107 l 1213 -1 l 1272 -1 l 1272 636 l 975 636 m 0 296 l 0 -1 l 937 -1 l 937 296 l 0 296 m 835 971 l 0 605 l 0 334 l 297 334 l 297 411 l 897 674 l 1272 674 l 1272 839 l 1274 840 l 1272 843 l 1272 971 l 835 971 z "},"ą":{"ha":1315,"x_min":0,"x_max":1274,"o":"m 975 636 l 975 -1 l 1072 -1 l 975 -101 l 975 -174 l 1219 -174 l 1272 -107 l 1105 -107 l 1213 -1 l 1272 -1 l 1272 636 l 975 636 m 0 296 l 0 -1 l 937 -1 l 937 296 l 0 296 m 835 971 l 0 605 l 0 334 l 297 334 l 297 411 l 897 674 l 1272 674 l 1272 839 l 1274 840 l 1272 843 l 1272 971 l 835 971 z "},"Ć":{"ha":1315,"x_min":0,"x_max":1270,"o":"m 0 971 l 0 675 l 1270 675 l 1270 971 l 0 971 m 0 637 l 0 401 l 401 0 l 821 0 l 496 325 l 496 325 l 296 525 l 296 637 l 0 637 m 575 299 l 873 1 l 871 0 l 1270 0 l 1270 299 l 575 299 m 584 1180 l 412 1008 l 685 1008 l 857 1180 l 584 1180 z "},"ć":{"ha":1312,"x_min":0,"x_max":1270,"o":"m 0 971 l 0 675 l 1270 675 l 1270 971 l 0 971 m 0 637 l 0 401 l 401 0 l 821 0 l 496 325 l 496 325 l 296 525 l 296 637 l 0 637 m 575 299 l 873 1 l 871 0 l 1270 0 l 1270 299 l 575 299 m 584 1180 l 412 1008 l 685 1008 l 857 1180 l 584 1180 z "},"Ĉ":{"ha":1310,"x_min":0,"x_max":1270,"o":"m 0 971 l 0 675 l 1270 675 l 1270 971 l 0 971 m 0 637 l 0 401 l 401 0 l 821 0 l 496 325 l 496 325 l 296 525 l 296 637 l 0 637 m 575 299 l 873 1 l 871 0 l 1270 0 l 1270 299 l 575 299 m 584 1180 l 412 1008 l 857 1008 l 685 1180 l 584 1180 z "},"ĉ":{"ha":1315,"x_min":0,"x_max":1270,"o":"m 0 971 l 0 675 l 1270 675 l 1270 971 l 0 971 m 0 637 l 0 401 l 401 0 l 821 0 l 496 325 l 496 325 l 296 525 l 296 637 l 0 637 m 575 299 l 873 1 l 871 0 l 1270 0 l 1270 299 l 575 299 m 584 1180 l 412 1008 l 857 1008 l 685 1180 l 584 1180 z "},"Ċ":{"ha":1315,"x_min":0,"x_max":1271,"o":"m 487 1008 l 784 1008 l 784 1180 l 487 1180 l 487 1008 m 0 971 l 0 675 l 1271 675 l 1271 971 l 0 971 m 0 637 l 0 401 l 401 0 l 821 0 l 496 325 l 496 325 l 296 525 l 296 637 l 0 637 m 576 299 l 873 1 l 871 0 l 1271 0 l 1271 299 l 576 299 z "},"ċ":{"ha":1317,"x_min":0,"x_max":1271,"o":"m 487 1008 l 784 1008 l 784 1180 l 487 1180 l 487 1008 m 0 971 l 0 675 l 1271 675 l 1271 971 l 0 971 m 0 637 l 0 401 l 401 0 l 821 0 l 496 325 l 496 325 l 296 525 l 296 637 l 0 637 m 576 299 l 873 1 l 871 0 l 1271 0 l 1271 299 l 576 299 z "},"Č":{"ha":1315,"x_min":0,"x_max":1270,"o":"m 0 971 l 0 675 l 1270 675 l 1270 971 l 0 971 m 0 637 l 0 401 l 401 0 l 821 0 l 296 525 l 296 637 l 0 637 m 575 299 l 873 1 l 871 0 l 1270 0 l 1270 299 l 575 299 m 685 1008 l 857 1180 l 412 1180 l 584 1008 l 685 1008 z "},"č":{"ha":1312,"x_min":0,"x_max":1270,"o":"m 0 971 l 0 675 l 1270 675 l 1270 971 l 0 971 m 0 637 l 0 401 l 401 0 l 821 0 l 296 525 l 296 637 l 0 637 m 575 299 l 873 1 l 871 0 l 1270 0 l 1270 299 l 575 299 m 685 1008 l 857 1180 l 412 1180 l 584 1008 l 685 1008 z "},"Ď":{"ha":1315,"x_min":0,"x_max":1270,"o":"m 744 296 l 296 296 l 296 637 l 0 637 l 0 0 l 867 0 l 1270 404 l 1270 823 l 744 296 m 0 971 l 0 675 l 974 675 l 974 580 l 1270 877 l 1270 971 l 0 971 m 685 1008 l 857 1180 l 412 1180 l 584 1008 l 685 1008 z "},"ď":{"ha":1314,"x_min":0,"x_max":1270,"o":"m 744 296 l 296 296 l 296 637 l 0 637 l 0 0 l 867 0 l 1270 404 l 1270 823 l 744 296 m 0 971 l 0 675 l 974 675 l 974 580 l 1270 877 l 1270 971 l 0 971 m 685 1008 l 857 1180 l 412 1180 l 584 1008 l 685 1008 z "},"Đ":{"ha":1442,"x_min":0,"x_max":1394,"o":"m 1097 527 l 1097 527 l 867 297 l 420 297 l 420 340 l 681 340 l 977 637 l 0 637 l 0 340 l 123 340 l 123 0 l 991 0 l 1394 404 l 1394 824 l 1097 527 m 123 972 l 123 675 l 1097 675 l 1097 581 l 1394 878 l 1394 972 l 123 972 z "},"đ":{"ha":1439,"x_min":0,"x_max":1394,"o":"m 1097 527 l 1097 527 l 867 297 l 420 297 l 420 340 l 681 340 l 977 637 l 0 637 l 0 340 l 123 340 l 123 0 l 991 0 l 1394 404 l 1394 824 l 1097 527 m 123 972 l 123 675 l 1097 675 l 1097 581 l 1394 878 l 1394 972 l 123 972 z "},"Ē":{"ha":1313,"x_min":0,"x_max":1270,"o":"m 412 1009 l 858 1009 l 858 1181 l 412 1181 l 412 1009 m 0 971 l 0 674 l 1270 674 l 1270 971 l 0 971 m 0 636 l 0 0 l 1270 0 l 1270 296 l 296 296 l 296 636 l 0 636 m 334 337 l 973 337 l 973 633 l 334 633 l 334 337 z "},"ē":{"ha":1312,"x_min":0,"x_max":1270,"o":"m 412 1009 l 858 1009 l 858 1181 l 412 1181 l 412 1009 m 0 971 l 0 674 l 1270 674 l 1270 971 l 0 971 m 0 636 l 0 0 l 1270 0 l 1270 296 l 296 296 l 296 636 l 0 636 m 334 337 l 973 337 l 973 633 l 334 633 l 334 337 z "},"Ĕ":{"ha":1313,"x_min":0,"x_max":1269,"o":"m 857 1180 l 713 1140 l 555 1140 l 412 1180 l 412 1051 l 553 1008 l 716 1008 l 857 1051 l 857 1180 m 0 970 l 0 673 l 1269 673 l 1269 970 l 0 970 m 0 635 l 0 0 l 1269 0 l 1269 296 l 296 296 l 296 635 l 0 635 m 334 337 l 972 337 l 972 633 l 334 633 l 334 337 z "},"ĕ":{"ha":1312,"x_min":0,"x_max":1269,"o":"m 857 1180 l 713 1140 l 555 1140 l 412 1180 l 412 1051 l 553 1008 l 716 1008 l 857 1051 l 857 1180 m 0 970 l 0 673 l 1269 673 l 1269 970 l 0 970 m 0 635 l 0 0 l 1269 0 l 1269 296 l 296 296 l 296 635 l 0 635 m 334 337 l 972 337 l 972 633 l 334 633 l 334 337 z "},"Ė":{"ha":1313,"x_min":0,"x_max":1269,"o":"m 0 970 l 0 673 l 1269 673 l 1269 970 l 0 970 m 0 635 l 0 0 l 1269 0 l 1269 296 l 296 296 l 296 635 l 0 635 m 334 337 l 972 337 l 972 633 l 334 633 l 334 337 m 486 1008 l 783 1008 l 783 1180 l 486 1180 l 486 1008 z "},"ė":{"ha":1312,"x_min":0,"x_max":1269,"o":"m 0 970 l 0 673 l 1269 673 l 1269 970 l 0 970 m 0 635 l 0 0 l 1269 0 l 1269 296 l 296 296 l 296 635 l 0 635 m 334 337 l 972 337 l 972 633 l 334 633 l 334 337 m 486 1008 l 783 1008 l 783 1180 l 486 1180 l 486 1008 z "},"Ę":{"ha":1313,"x_min":0,"x_max":1272,"o":"m 0 637 l 0 1 l 1069 1 l 976 -96 l 976 -168 l 1219 -168 l 1272 -102 l 1105 -102 l 1210 1 l 1270 1 l 1270 298 l 296 298 l 296 637 l 0 637 m 0 972 l 0 675 l 1270 675 l 1270 972 l 0 972 m 334 338 l 973 338 l 973 635 l 334 635 l 334 338 z "},"ę":{"ha":1315,"x_min":0,"x_max":1272,"o":"m 0 637 l 0 1 l 1069 1 l 976 -96 l 976 -168 l 1219 -168 l 1272 -102 l 1105 -102 l 1210 1 l 1270 1 l 1270 298 l 296 298 l 296 637 l 0 637 m 0 972 l 0 675 l 1270 675 l 1270 972 l 0 972 m 334 338 l 973 338 l 973 635 l 334 635 l 334 338 z "},"Ě":{"ha":1305,"x_min":0,"x_max":1270,"o":"m 686 1009 l 858 1181 l 412 1181 l 585 1009 l 686 1009 m 0 971 l 0 674 l 1270 674 l 1270 971 l 0 971 m 0 636 l 0 0 l 1270 0 l 1270 296 l 296 296 l 296 636 l 0 636 m 334 337 l 973 337 l 973 633 l 334 633 l 334 337 z "},"ě":{"ha":1312,"x_min":0,"x_max":1270,"o":"m 686 1009 l 858 1181 l 412 1181 l 585 1009 l 686 1009 m 0 971 l 0 674 l 1270 674 l 1270 971 l 0 971 m 0 636 l 0 0 l 1270 0 l 1270 296 l 296 296 l 296 636 l 0 636 m 334 337 l 973 337 l 973 633 l 334 633 l 334 337 z "},"Ĝ":{"ha":1317,"x_min":0,"x_max":1270,"o":"m 0 971 l 0 675 l 1270 675 l 1270 971 l 0 971 m 0 637 l 0 0 l 397 0 l 693 296 l 296 296 l 296 637 l 0 637 m 636 634 l 342 337 l 788 337 l 450 0 l 871 0 l 974 103 l 974 0 l 1270 0 l 1270 634 l 636 634 m 584 1180 l 412 1008 l 857 1008 l 685 1180 l 584 1180 z "},"ĝ":{"ha":1315,"x_min":0,"x_max":1270,"o":"m 0 971 l 0 675 l 1270 675 l 1270 971 l 0 971 m 0 637 l 0 0 l 397 0 l 693 296 l 296 296 l 296 637 l 0 637 m 636 634 l 342 337 l 788 337 l 450 0 l 871 0 l 974 103 l 974 0 l 1270 0 l 1270 634 l 636 634 m 584 1180 l 412 1008 l 857 1008 l 685 1180 l 584 1180 z "},"Ğ":{"ha":1315,"x_min":0,"x_max":1270,"o":"m 0 971 l 0 675 l 1270 675 l 1270 971 l 0 971 m 0 637 l 0 0 l 397 0 l 693 296 l 296 296 l 296 637 l 0 637 m 636 634 l 342 337 l 788 337 l 450 0 l 871 0 l 974 103 l 974 0 l 1270 0 l 1270 634 l 636 634 m 857 1180 l 713 1140 l 555 1140 l 412 1180 l 412 1051 l 553 1008 l 716 1008 l 857 1051 l 857 1180 z "},"ğ":{"ha":1317,"x_min":0,"x_max":1270,"o":"m 0 971 l 0 675 l 1270 675 l 1270 971 l 0 971 m 0 637 l 0 0 l 397 0 l 693 296 l 296 296 l 296 637 l 0 637 m 636 634 l 342 337 l 788 337 l 450 0 l 871 0 l 974 103 l 974 0 l 1270 0 l 1270 634 l 636 634 m 857 1180 l 713 1140 l 555 1140 l 412 1180 l 412 1051 l 553 1008 l 716 1008 l 857 1051 l 857 1180 z "},"Ġ":{"ha":1315,"x_min":0,"x_max":1270,"o":"m 0 971 l 0 675 l 1270 675 l 1270 971 l 0 971 m 0 637 l 0 0 l 397 0 l 693 296 l 296 296 l 296 637 l 0 637 m 636 634 l 342 337 l 788 337 l 450 0 l 871 0 l 974 103 l 974 0 l 1270 0 l 1270 634 l 636 634 m 487 1008 l 784 1008 l 784 1180 l 487 1180 l 487 1008 z "},"ġ":{"ha":1317,"x_min":0,"x_max":1270,"o":"m 0 971 l 0 675 l 1270 675 l 1270 971 l 0 971 m 0 637 l 0 0 l 397 0 l 693 296 l 296 296 l 296 637 l 0 637 m 636 634 l 342 337 l 788 337 l 450 0 l 871 0 l 974 103 l 974 0 l 1270 0 l 1270 634 l 636 634 m 487 1008 l 784 1008 l 784 1180 l 487 1180 l 487 1008 z "},"Ģ":{"ha":1315,"x_min":0,"x_max":1270,"o":"m 488 -35 l 488 -159 l 635 -159 l 635 -219 l 783 -159 l 783 -35 l 488 -35 m 0 970 l 0 674 l 1270 674 l 1270 970 l 0 970 m 0 636 l 0 0 l 396 0 l 692 296 l 296 296 l 296 636 l 0 636 m 635 633 l 342 337 l 787 337 l 450 0 l 870 0 l 973 103 l 973 0 l 1270 0 l 1270 633 l 635 633 z "},"ģ":{"ha":1320,"x_min":0,"x_max":1270,"o":"m 488 -35 l 488 -159 l 635 -159 l 635 -219 l 783 -159 l 783 -35 l 488 -35 m 0 970 l 0 674 l 1270 674 l 1270 970 l 0 970 m 0 636 l 0 0 l 396 0 l 692 296 l 296 296 l 296 636 l 0 636 m 635 633 l 342 337 l 787 337 l 450 0 l 870 0 l 973 103 l 973 0 l 1270 0 l 1270 633 l 635 633 z "},"Ĥ":{"ha":1310,"x_min":0,"x_max":1270,"o":"m 1270 0 l 1270 971 l 974 971 l 974 0 l 1270 0 m 0 672 l 296 672 l 296 971 l 0 971 l 0 672 m 296 0 l 296 337 l 936 337 l 936 634 l 296 634 l 296 634 l 0 634 l 0 0 l 296 0 m 584 1180 l 412 1008 l 857 1008 l 685 1180 l 584 1180 z "},"ĥ":{"ha":1310,"x_min":0,"x_max":1270,"o":"m 1270 0 l 1270 971 l 974 971 l 974 0 l 1270 0 m 0 672 l 296 672 l 296 971 l 0 971 l 0 672 m 296 0 l 296 337 l 936 337 l 936 634 l 296 634 l 296 634 l 0 634 l 0 0 l 296 0 m 584 1180 l 412 1008 l 857 1008 l 685 1180 l 584 1180 z "},"Ħ":{"ha":1498,"x_min":0,"x_max":1458,"o":"m 105 635 l 105 0 l 401 0 l 401 338 l 1041 338 l 1041 634 l 401 634 l 401 635 l 105 635 m 1079 972 l 1079 847 l 401 847 l 401 972 l 105 972 l 105 847 l 0 847 l 0 675 l 105 675 l 105 673 l 401 673 l 401 675 l 1079 675 l 1079 0 l 1376 0 l 1376 675 l 1458 675 l 1458 847 l 1376 847 l 1376 972 l 1079 972 z "},"ħ":{"ha":1502,"x_min":0,"x_max":1458,"o":"m 105 635 l 105 0 l 401 0 l 401 338 l 1041 338 l 1041 634 l 401 634 l 401 635 l 105 635 m 1079 972 l 1079 847 l 401 847 l 401 972 l 105 972 l 105 847 l 0 847 l 0 675 l 105 675 l 105 673 l 401 673 l 401 675 l 1079 675 l 1079 0 l 1376 0 l 1376 675 l 1458 675 l 1458 847 l 1376 847 l 1376 972 l 1079 972 z "},"Ĩ":{"ha":351,"x_min":-75,"x_max":370,"o":"m 370 1190 l 239 1164 l 40 1164 l -75 1128 l -75 1017 l 34 1040 l 239 1040 l 370 1072 l 370 1190 m 0 676 l 298 676 l 298 974 l 0 974 l 0 676 m 0 0 l 298 0 l 298 638 l 0 638 l 0 0 z "},"ĩ":{"ha":349,"x_min":-75,"x_max":370,"o":"m 370 1190 l 239 1164 l 40 1164 l -75 1128 l -75 1017 l 34 1040 l 239 1040 l 370 1072 l 370 1190 m 0 676 l 298 676 l 298 974 l 0 974 l 0 676 m 0 0 l 298 0 l 298 638 l 0 638 l 0 0 z "},"Ī":{"ha":357,"x_min":-74,"x_max":370,"o":"m -74 1008 l 370 1008 l 370 1179 l -74 1179 l -74 1008 m 0 676 l 298 676 l 298 974 l 0 974 l 0 676 m 0 0 l 298 0 l 298 638 l 0 638 l 0 0 z "},"ī":{"ha":351,"x_min":-74,"x_max":370,"o":"m -74 1008 l 370 1008 l 370 1179 l -74 1179 l -74 1008 m 0 676 l 298 676 l 298 974 l 0 974 l 0 676 m 0 0 l 298 0 l 298 638 l 0 638 l 0 0 z "},"Ĭ":{"ha":355,"x_min":-75,"x_max":370,"o":"m 370 1181 l 227 1141 l 69 1141 l -75 1181 l -75 1053 l 66 1009 l 230 1009 l 370 1053 l 370 1181 m 0 676 l 298 676 l 298 974 l 0 974 l 0 676 m 0 0 l 298 0 l 298 638 l 0 638 l 0 0 z "},"ĭ":{"ha":352,"x_min":-75,"x_max":370,"o":"m 370 1181 l 227 1141 l 69 1141 l -75 1181 l -75 1053 l 66 1009 l 230 1009 l 370 1053 l 370 1181 m 0 676 l 298 676 l 298 974 l 0 974 l 0 676 m 0 0 l 298 0 l 298 638 l 0 638 l 0 0 z "},"Į":{"ha":349,"x_min":0,"x_max":341,"o":"m 0 637 l 0 1 l 141 1 l 45 -98 l 45 -171 l 288 -171 l 341 -104 l 174 -104 l 281 1 l 296 1 l 296 637 l 0 637 m 0 675 l 296 675 l 296 971 l 0 971 l 0 675 z "},"į":{"ha":347,"x_min":0,"x_max":341,"o":"m 0 637 l 0 1 l 141 1 l 45 -98 l 45 -171 l 288 -171 l 341 -104 l 174 -104 l 281 1 l 296 1 l 296 637 l 0 637 m 0 675 l 296 675 l 296 971 l 0 971 l 0 675 z "},"İ":{"ha":349,"x_min":0,"x_max":298,"o":"m 0 1008 l 296 1008 l 296 1179 l 0 1179 l 0 1008 m 0 676 l 298 676 l 298 974 l 0 974 l 0 676 m 0 0 l 298 0 l 298 638 l 0 638 l 0 0 z "},"Ĵ":{"ha":1315,"x_min":0,"x_max":1270,"o":"m 0 296 l 0 0 l 400 0 l 397 3 l 690 296 l 0 296 m 974 675 l 1270 675 l 1270 971 l 974 971 l 974 675 m 974 637 l 974 526 l 774 326 l 448 0 l 867 0 l 1270 403 l 1270 637 l 974 637 m 584 1180 l 412 1008 l 857 1008 l 685 1180 l 584 1180 z "},"ĵ":{"ha":1315,"x_min":0,"x_max":1270,"o":"m 0 296 l 0 0 l 400 0 l 397 3 l 690 296 l 0 296 m 974 675 l 1270 675 l 1270 971 l 974 971 l 974 675 m 974 637 l 974 526 l 774 326 l 448 0 l 867 0 l 1270 403 l 1270 637 l 974 637 m 584 1180 l 412 1008 l 857 1008 l 685 1180 l 584 1180 z "},"Ķ":{"ha":1320,"x_min":0,"x_max":1271,"o":"m 1154 972 l 857 675 l 974 675 l 1271 972 l 1154 972 m 492 297 l 792 0 l 895 2 l 1271 2 l 1271 297 l 492 297 m 0 675 l 297 675 l 297 972 l 0 972 l 0 675 m 679 972 l 342 634 l 297 634 l 297 637 l 0 637 l 0 0 l 297 0 l 297 337 l 451 337 l 453 335 l 873 335 l 667 540 l 802 675 l 803 675 l 1100 972 l 679 972 m 488 -35 l 488 -159 l 635 -159 l 635 -219 l 783 -159 l 783 -35 l 488 -35 z "},"ķ":{"ha":1317,"x_min":0,"x_max":1271,"o":"m 1154 972 l 857 675 l 974 675 l 1271 972 l 1154 972 m 492 297 l 792 0 l 895 2 l 1271 2 l 1271 297 l 492 297 m 0 675 l 297 675 l 297 972 l 0 972 l 0 675 m 679 972 l 342 634 l 297 634 l 297 637 l 0 637 l 0 0 l 297 0 l 297 337 l 451 337 l 453 335 l 873 335 l 667 540 l 802 675 l 803 675 l 1100 972 l 679 972 m 488 -35 l 488 -159 l 635 -159 l 635 -219 l 783 -159 l 783 -35 l 488 -35 z "},"Ĺ":{"ha":1317,"x_min":0,"x_max":1275,"o":"m 0 637 l 0 0 l 1275 0 l 1275 296 l 298 296 l 298 637 l 0 637 m 0 675 l 298 675 l 298 972 l 0 972 l 0 675 m 584 1180 l 412 1008 l 685 1008 l 857 1180 l 584 1180 z "},"ĺ":{"ha":1320,"x_min":0,"x_max":1275,"o":"m 0 637 l 0 0 l 1275 0 l 1275 296 l 298 296 l 298 637 l 0 637 m 0 675 l 298 675 l 298 972 l 0 972 l 0 675 m 584 1180 l 412 1008 l 685 1008 l 857 1180 l 584 1180 z "},"Ļ":{"ha":1320,"x_min":0,"x_max":1275,"o":"m 0 637 l 0 0 l 1275 0 l 1275 296 l 298 296 l 298 637 l 0 637 m 0 675 l 298 675 l 298 972 l 0 972 l 0 675 m 488 -35 l 488 -159 l 635 -159 l 635 -219 l 783 -159 l 783 -35 l 488 -35 z "},"ļ":{"ha":1320,"x_min":0,"x_max":1275,"o":"m 0 637 l 0 0 l 1275 0 l 1275 296 l 298 296 l 298 637 l 0 637 m 0 675 l 298 675 l 298 972 l 0 972 l 0 675 m 488 -35 l 488 -159 l 635 -159 l 635 -219 l 783 -159 l 783 -35 l 488 -35 z "},"Ľ":{"ha":1327,"x_min":0,"x_max":1320,"o":"m 0 637 l 0 0 l 1275 0 l 1275 296 l 298 296 l 298 637 l 0 637 m 0 675 l 298 675 l 298 972 l 0 972 l 0 675 m 1019 971 l 1320 971 l 1019 667 l 1019 971 z "},"ľ":{"ha":1320,"x_min":0,"x_max":1320,"o":"m 0 637 l 0 0 l 1275 0 l 1275 296 l 298 296 l 298 637 l 0 637 m 0 675 l 298 675 l 298 972 l 0 972 l 0 675 m 1019 971 l 1320 971 l 1019 667 l 1019 971 z "},"Ń":{"ha":1315,"x_min":0,"x_max":1270,"o":"m 0 0 l 296 0 l 296 637 l 0 637 l 0 0 m 974 0 l 1270 0 l 1270 641 l 974 771 l 974 0 m 0 971 l 0 675 l 455 675 l 936 464 l 936 787 l 517 971 l 0 971 m 584 1180 l 412 1008 l 685 1008 l 857 1180 l 584 1180 z "},"ń":{"ha":1310,"x_min":0,"x_max":1270,"o":"m 0 0 l 296 0 l 296 637 l 0 637 l 0 0 m 974 0 l 1270 0 l 1270 641 l 974 771 l 974 0 m 0 971 l 0 675 l 455 675 l 936 464 l 936 787 l 517 971 l 0 971 m 584 1180 l 412 1008 l 685 1008 l 857 1180 l 584 1180 z "},"Ņ":{"ha":1310,"x_min":0,"x_max":1270,"o":"m 0 0 l 296 0 l 296 637 l 0 637 l 0 0 m 974 0 l 1270 0 l 1270 641 l 974 771 l 974 0 m 0 971 l 0 675 l 455 675 l 936 464 l 936 787 l 517 971 l 0 971 m 488 -35 l 488 -159 l 635 -159 l 635 -219 l 783 -159 l 783 -35 l 488 -35 z "},"ņ":{"ha":1307,"x_min":0,"x_max":1270,"o":"m 0 0 l 296 0 l 296 637 l 0 637 l 0 0 m 974 0 l 1270 0 l 1270 641 l 974 771 l 974 0 m 0 971 l 0 675 l 455 675 l 936 464 l 936 787 l 517 971 l 0 971 m 488 -35 l 488 -159 l 635 -159 l 635 -219 l 783 -159 l 783 -35 l 488 -35 z "},"Ň":{"ha":1307,"x_min":0,"x_max":1270,"o":"m 0 0 l 296 0 l 296 637 l 0 637 l 0 0 m 974 0 l 1270 0 l 1270 641 l 974 771 l 974 0 m 0 971 l 0 675 l 455 675 l 936 464 l 936 787 l 517 971 l 0 971 m 685 1008 l 857 1180 l 412 1180 l 584 1008 l 685 1008 z "},"ň":{"ha":1310,"x_min":0,"x_max":1270,"o":"m 0 0 l 296 0 l 296 637 l 0 637 l 0 0 m 974 0 l 1270 0 l 1270 641 l 974 771 l 974 0 m 0 971 l 0 675 l 455 675 l 936 464 l 936 787 l 517 971 l 0 971 m 685 1008 l 857 1180 l 412 1180 l 584 1008 l 685 1008 z "},"Ō":{"ha":1317,"x_min":0,"x_max":1270,"o":"m 412 1009 l 858 1009 l 858 1181 l 412 1181 l 412 1009 m 0 971 l 0 674 l 974 674 l 974 334 l 1270 334 l 1270 971 l 0 971 m 0 636 l 0 0 l 1270 0 l 1270 296 l 297 296 l 297 636 l 0 636 z "},"ō":{"ha":1307,"x_min":0,"x_max":1270,"o":"m 412 1009 l 858 1009 l 858 1181 l 412 1181 l 412 1009 m 0 971 l 0 674 l 974 674 l 974 334 l 1270 334 l 1270 971 l 0 971 m 0 636 l 0 0 l 1270 0 l 1270 296 l 297 296 l 297 636 l 0 636 z "},"Ŏ":{"ha":1313,"x_min":0,"x_max":1270,"o":"m 857 1181 l 713 1141 l 556 1141 l 412 1181 l 412 1052 l 553 1009 l 716 1009 l 857 1052 l 857 1181 m 0 970 l 0 674 l 973 674 l 973 334 l 1270 334 l 1270 970 l 0 970 m 0 636 l 0 0 l 1270 0 l 1270 296 l 296 296 l 296 636 l 0 636 z "},"ŏ":{"ha":1312,"x_min":0,"x_max":1270,"o":"m 857 1181 l 713 1141 l 556 1141 l 412 1181 l 412 1052 l 553 1009 l 716 1009 l 857 1052 l 857 1181 m 0 970 l 0 674 l 973 674 l 973 334 l 1270 334 l 1270 970 l 0 970 m 0 636 l 0 0 l 1270 0 l 1270 296 l 296 296 l 296 636 l 0 636 z "},"Ő":{"ha":0,"x_min":0,"x_max":1271,"o":"m 0 971 l 0 675 l 974 675 l 974 335 l 1271 335 l 1271 971 l 0 971 m 0 637 l 0 0 l 1271 0 l 1271 297 l 297 297 l 297 637 l 0 637 m 585 1182 l 412 1010 l 517 1010 l 689 1182 l 585 1182 m 754 1182 l 582 1010 l 686 1010 l 858 1182 l 754 1182 z "},"ő":{"ha":1312,"x_min":0,"x_max":1271,"o":"m 0 971 l 0 675 l 974 675 l 974 335 l 1271 335 l 1271 971 l 0 971 m 0 637 l 0 0 l 1271 0 l 1271 297 l 297 297 l 297 637 l 0 637 m 585 1182 l 412 1010 l 517 1010 l 689 1182 l 585 1182 m 754 1182 l 582 1010 l 686 1010 l 858 1182 l 754 1182 z "},"Œ":{"ha":2072,"x_min":0,"x_max":2028,"o":"m 0 972 l 0 335 l 297 335 l 297 675 l 2028 675 l 2028 972 l 0 972 m 1201 338 l 1732 338 l 1732 634 l 1201 634 l 1201 338 m 866 637 l 866 297 l 0 297 l 0 0 l 2028 0 l 2028 297 l 1163 297 l 1163 637 l 866 637 z "},"œ":{"ha":2070,"x_min":0,"x_max":2028,"o":"m 0 972 l 0 335 l 297 335 l 297 675 l 2028 675 l 2028 972 l 0 972 m 1201 338 l 1732 338 l 1732 634 l 1201 634 l 1201 338 m 866 637 l 866 297 l 0 297 l 0 0 l 2028 0 l 2028 297 l 1163 297 l 1163 637 l 866 637 z "},"Ŕ":{"ha":1307,"x_min":0,"x_max":1280,"o":"m 0 636 l 0 0 l 297 0 l 297 297 l 564 297 l 861 0 l 1280 0 l 983 297 l 983 297 l 689 591 l 297 591 l 297 636 l 0 636 m 0 971 l 0 675 l 297 675 l 297 677 l 970 677 l 884 591 l 743 591 l 1023 311 l 1270 558 l 1270 971 l 0 971 m 584 1180 l 412 1008 l 685 1008 l 857 1180 l 584 1180 z "},"ŕ":{"ha":1310,"x_min":0,"x_max":1280,"o":"m 0 636 l 0 0 l 297 0 l 297 297 l 564 297 l 861 0 l 1280 0 l 983 297 l 983 297 l 689 591 l 297 591 l 297 636 l 0 636 m 0 971 l 0 675 l 297 675 l 297 677 l 970 677 l 884 591 l 743 591 l 1023 311 l 1270 558 l 1270 971 l 0 971 m 584 1180 l 412 1008 l 685 1008 l 857 1180 l 584 1180 z "},"Ŗ":{"ha":1307,"x_min":0,"x_max":1280,"o":"m 0 636 l 0 0 l 297 0 l 297 297 l 564 297 l 861 0 l 1280 0 l 983 297 l 983 297 l 689 591 l 297 591 l 297 636 l 0 636 m 0 971 l 0 675 l 297 675 l 297 677 l 970 677 l 884 591 l 743 591 l 1023 311 l 1270 558 l 1270 971 l 0 971 m 488 -35 l 488 -159 l 635 -159 l 635 -219 l 783 -159 l 783 -35 l 488 -35 z "},"ŗ":{"ha":1310,"x_min":0,"x_max":1280,"o":"m 0 636 l 0 0 l 297 0 l 297 297 l 564 297 l 861 0 l 1280 0 l 983 297 l 983 297 l 689 591 l 297 591 l 297 636 l 0 636 m 0 971 l 0 675 l 297 675 l 297 677 l 970 677 l 884 591 l 743 591 l 1023 311 l 1270 558 l 1270 971 l 0 971 m 488 -35 l 488 -159 l 635 -159 l 635 -219 l 783 -159 l 783 -35 l 488 -35 z "},"Ř":{"ha":1310,"x_min":0,"x_max":1280,"o":"m 0 636 l 0 0 l 297 0 l 297 297 l 564 297 l 861 0 l 1280 0 l 983 297 l 983 297 l 689 591 l 297 591 l 297 636 l 0 636 m 0 971 l 0 675 l 297 675 l 297 677 l 970 677 l 884 591 l 743 591 l 1023 311 l 1270 558 l 1270 971 l 0 971 m 686 1009 l 858 1181 l 412 1181 l 585 1009 l 686 1009 z "},"ř":{"ha":1310,"x_min":0,"x_max":1280,"o":"m 0 636 l 0 0 l 297 0 l 297 297 l 564 297 l 861 0 l 1280 0 l 983 297 l 983 297 l 689 591 l 297 591 l 297 636 l 0 636 m 0 971 l 0 675 l 297 675 l 297 677 l 970 677 l 884 591 l 743 591 l 1023 311 l 1270 558 l 1270 971 l 0 971 m 686 1009 l 858 1181 l 412 1181 l 585 1009 l 686 1009 z "},"Ś":{"ha":1308,"x_min":0,"x_max":1272,"o":"m 426 971 l 130 675 l 1272 675 l 1272 971 l 426 971 m 92 636 l 2 546 l 2 336 l 211 336 l 212 336 l 212 336 l 763 336 l 724 297 l 427 0 l 847 0 l 1272 425 l 1272 633 l 509 633 l 512 636 l 92 636 m 0 297 l 0 0 l 373 0 l 669 297 l 0 297 m 584 1180 l 412 1008 l 685 1008 l 857 1180 l 584 1180 z "},"ś":{"ha":1317,"x_min":0,"x_max":1272,"o":"m 426 971 l 130 675 l 1272 675 l 1272 971 l 426 971 m 92 636 l 2 546 l 2 336 l 211 336 l 212 336 l 212 336 l 763 336 l 724 297 l 427 0 l 847 0 l 1272 425 l 1272 633 l 509 633 l 512 636 l 92 636 m 0 297 l 0 0 l 373 0 l 669 297 l 0 297 m 584 1180 l 412 1008 l 685 1008 l 857 1180 l 584 1180 z "},"Ŝ":{"ha":1317,"x_min":0,"x_max":1272,"o":"m 426 971 l 130 675 l 1272 675 l 1272 971 l 426 971 m 92 636 l 2 546 l 2 336 l 211 336 l 212 336 l 212 336 l 763 336 l 724 297 l 427 0 l 847 0 l 1272 425 l 1272 633 l 509 633 l 512 636 l 92 636 m 0 297 l 0 0 l 373 0 l 669 297 l 0 297 m 584 1180 l 412 1008 l 857 1008 l 685 1180 l 584 1180 z "},"ŝ":{"ha":1312,"x_min":0,"x_max":1272,"o":"m 426 971 l 130 675 l 1272 675 l 1272 971 l 426 971 m 92 636 l 2 546 l 2 336 l 211 336 l 212 336 l 212 336 l 763 336 l 724 297 l 427 0 l 847 0 l 1272 425 l 1272 633 l 509 633 l 512 636 l 92 636 m 0 297 l 0 0 l 373 0 l 669 297 l 0 297 m 584 1180 l 412 1008 l 857 1008 l 685 1180 l 584 1180 z "},"Ş":{"ha":1325,"x_min":0,"x_max":1276,"o":"m 427 971 l 130 673 l 1276 673 l 1276 971 l 427 971 m 0 295 l 0 -3 l 374 -3 l 671 295 l 0 295 m 92 635 l 1 545 l 1 334 l 211 334 l 212 334 l 213 334 l 766 334 l 726 295 l 726 295 l 428 -3 l 568 -3 l 523 -58 l 732 -58 l 732 -122 l 523 -122 l 523 -168 l 820 -168 l 820 -23 l 648 -23 l 665 -3 l 850 -3 l 1276 422 l 1276 632 l 510 632 l 513 635 l 92 635 z "},"ş":{"ha":1325,"x_min":0,"x_max":1276,"o":"m 427 971 l 130 673 l 1276 673 l 1276 971 l 427 971 m 0 295 l 0 -3 l 374 -3 l 671 295 l 0 295 m 92 635 l 1 545 l 1 334 l 211 334 l 212 334 l 213 334 l 766 334 l 726 295 l 726 295 l 428 -3 l 568 -3 l 523 -58 l 732 -58 l 732 -122 l 523 -122 l 523 -168 l 820 -168 l 820 -23 l 648 -23 l 665 -3 l 850 -3 l 1276 422 l 1276 632 l 510 632 l 513 635 l 92 635 z "},"Š":{"ha":1320,"x_min":0,"x_max":1272,"o":"m 426 971 l 130 675 l 1272 675 l 1272 971 l 426 971 m 92 636 l 2 546 l 2 336 l 211 336 l 212 336 l 212 336 l 763 336 l 724 297 l 427 0 l 847 0 l 1272 425 l 1272 633 l 509 633 l 512 636 l 92 636 m 0 297 l 0 0 l 373 0 l 669 297 l 0 297 m 685 1008 l 857 1180 l 412 1180 l 584 1008 l 685 1008 z "},"š":{"ha":1320,"x_min":0,"x_max":1272,"o":"m 426 971 l 130 675 l 1272 675 l 1272 971 l 426 971 m 92 636 l 2 546 l 2 336 l 211 336 l 212 336 l 212 336 l 763 336 l 724 297 l 427 0 l 847 0 l 1272 425 l 1272 633 l 509 633 l 512 636 l 92 636 m 0 297 l 0 0 l 373 0 l 669 297 l 0 297 m 685 1008 l 857 1180 l 412 1180 l 584 1008 l 685 1008 z "},"Ţ":{"ha":1321,"x_min":0,"x_max":1277,"o":"m 490 637 l 490 -1 l 539 -1 l 490 -61 l 700 -61 l 700 -125 l 490 -125 l 490 -171 l 787 -171 l 787 -25 l 614 -25 l 636 -1 l 788 -1 l 788 637 l 490 637 m 0 675 l 1277 675 l 1277 973 l 0 973 l 0 675 z "},"ţ":{"ha":1986,"x_min":0,"x_max":1277,"o":"m 490 637 l 490 -1 l 539 -1 l 490 -61 l 700 -61 l 700 -125 l 490 -125 l 490 -171 l 787 -171 l 787 -25 l 614 -25 l 636 -1 l 788 -1 l 788 637 l 490 637 m 0 675 l 1277 675 l 1277 973 l 0 973 l 0 675 z "},"Ť":{"ha":1327,"x_min":0,"x_max":1277,"o":"m 489 0 l 787 0 l 787 637 l 489 637 l 489 0 m 0 675 l 1277 675 l 1277 974 l 0 974 l 0 675 m 685 1008 l 857 1180 l 412 1180 l 584 1008 l 685 1008 z "},"ť":{"ha":1330,"x_min":0,"x_max":1277,"o":"m 489 0 l 787 0 l 787 637 l 489 637 l 489 0 m 0 675 l 1277 675 l 1277 974 l 0 974 l 0 675 m 685 1008 l 857 1180 l 412 1180 l 584 1008 l 685 1008 z "},"Ŧ":{"ha":1330,"x_min":0,"x_max":1277,"o":"m 0 673 l 1277 673 l 1277 971 l 0 971 l 0 673 m 1072 417 l 1072 589 l 787 589 l 787 637 l 489 637 l 489 589 l 203 589 l 203 417 l 489 417 l 489 0 l 787 0 l 787 417 l 1072 417 z "},"ŧ":{"ha":1325,"x_min":0,"x_max":1277,"o":"m 0 673 l 1277 673 l 1277 971 l 0 971 l 0 673 m 1072 417 l 1072 589 l 787 589 l 787 637 l 489 637 l 489 589 l 203 589 l 203 417 l 489 417 l 489 0 l 787 0 l 787 417 l 1072 417 z "},"Ũ":{"ha":1312,"x_min":0,"x_max":1271,"o":"m 975 335 l 1271 335 l 1271 972 l 975 972 l 975 335 m 0 675 l 297 675 l 297 972 l 0 972 l 0 675 m 0 637 l 0 0 l 1271 0 l 1271 297 l 297 297 l 297 637 l 0 637 m 857 1181 l 726 1156 l 526 1156 l 412 1120 l 412 1009 l 521 1031 l 726 1031 l 857 1064 l 857 1181 z "},"ũ":{"ha":1320,"x_min":0,"x_max":1271,"o":"m 975 335 l 1271 335 l 1271 972 l 975 972 l 975 335 m 0 675 l 297 675 l 297 972 l 0 972 l 0 675 m 0 637 l 0 0 l 1271 0 l 1271 297 l 297 297 l 297 637 l 0 637 m 857 1181 l 726 1156 l 526 1156 l 412 1120 l 412 1009 l 521 1031 l 726 1031 l 857 1064 l 857 1181 z "},"Ū":{"ha":1322,"x_min":0,"x_max":1271,"o":"m 975 335 l 1271 335 l 1271 972 l 975 972 l 975 335 m 0 675 l 297 675 l 297 972 l 0 972 l 0 675 m 0 637 l 0 0 l 1271 0 l 1271 297 l 297 297 l 297 637 l 0 637 m 412 1009 l 858 1009 l 858 1181 l 412 1181 l 412 1009 z "},"ū":{"ha":1320,"x_min":0,"x_max":1271,"o":"m 975 335 l 1271 335 l 1271 972 l 975 972 l 975 335 m 0 675 l 297 675 l 297 972 l 0 972 l 0 675 m 0 637 l 0 0 l 1271 0 l 1271 297 l 297 297 l 297 637 l 0 637 m 412 1009 l 858 1009 l 858 1181 l 412 1181 l 412 1009 z "},"Ŭ":{"ha":1317,"x_min":0,"x_max":1271,"o":"m 975 335 l 1271 335 l 1271 972 l 975 972 l 975 335 m 0 675 l 297 675 l 297 972 l 0 972 l 0 675 m 0 637 l 0 0 l 1271 0 l 1271 297 l 297 297 l 297 637 l 0 637 m 857 1180 l 713 1140 l 555 1140 l 412 1180 l 412 1051 l 553 1008 l 716 1008 l 857 1051 l 857 1180 z "},"ŭ":{"ha":1325,"x_min":0,"x_max":1271,"o":"m 975 335 l 1271 335 l 1271 972 l 975 972 l 975 335 m 0 675 l 297 675 l 297 972 l 0 972 l 0 675 m 0 637 l 0 0 l 1271 0 l 1271 297 l 297 297 l 297 637 l 0 637 m 857 1180 l 713 1140 l 555 1140 l 412 1180 l 412 1051 l 553 1008 l 716 1008 l 857 1051 l 857 1180 z "},"Ů":{"ha":1320,"x_min":0,"x_max":1271,"o":"m 975 335 l 1271 335 l 1271 972 l 975 972 l 975 335 m 0 675 l 297 675 l 297 972 l 0 972 l 0 675 m 0 637 l 0 0 l 1271 0 l 1271 297 l 297 297 l 297 637 l 0 637 m 488 1009 l 784 1009 l 784 1181 l 488 1181 l 488 1009 m 559 1140 l 713 1140 l 713 1050 l 559 1050 l 559 1140 z "},"ů":{"ha":1317,"x_min":0,"x_max":1271,"o":"m 975 335 l 1271 335 l 1271 972 l 975 972 l 975 335 m 0 675 l 297 675 l 297 972 l 0 972 l 0 675 m 0 637 l 0 0 l 1271 0 l 1271 297 l 297 297 l 297 637 l 0 637 m 488 1009 l 784 1009 l 784 1181 l 488 1181 l 488 1009 m 559 1140 l 713 1140 l 713 1050 l 559 1050 l 559 1140 z "},"Ű":{"ha":1320,"x_min":0,"x_max":1271,"o":"m 975 335 l 1271 335 l 1271 972 l 975 972 l 975 335 m 0 675 l 297 675 l 297 972 l 0 972 l 0 675 m 0 637 l 0 0 l 1271 0 l 1271 297 l 297 297 l 297 637 l 0 637 m 585 1182 l 412 1010 l 517 1010 l 689 1182 l 585 1182 m 754 1182 l 582 1010 l 686 1010 l 858 1182 l 754 1182 z "},"ű":{"ha":1320,"x_min":0,"x_max":1271,"o":"m 975 335 l 1271 335 l 1271 972 l 975 972 l 975 335 m 0 675 l 297 675 l 297 972 l 0 972 l 0 675 m 0 637 l 0 0 l 1271 0 l 1271 297 l 297 297 l 297 637 l 0 637 m 585 1182 l 412 1010 l 517 1010 l 689 1182 l 585 1182 m 754 1182 l 582 1010 l 686 1010 l 858 1182 l 754 1182 z "},"Ų":{"ha":1316,"x_min":0,"x_max":1271,"o":"m 975 334 l 1271 334 l 1271 971 l 975 971 l 975 334 m 0 674 l 297 674 l 297 971 l 0 971 l 0 674 m 0 636 l 0 -1 l 1065 -1 l 975 -95 l 975 -168 l 1217 -168 l 1271 -101 l 1103 -101 l 1206 -1 l 1271 -1 l 1271 296 l 297 296 l 297 636 l 0 636 z "},"ų":{"ha":1320,"x_min":0,"x_max":1271,"o":"m 975 334 l 1271 334 l 1271 971 l 975 971 l 975 334 m 0 674 l 297 674 l 297 971 l 0 971 l 0 674 m 0 636 l 0 -1 l 1065 -1 l 975 -95 l 975 -168 l 1217 -168 l 1271 -101 l 1103 -101 l 1206 -1 l 1271 -1 l 1271 296 l 297 296 l 297 636 l 0 636 z "},"Ŵ":{"ha":1525,"x_min":0,"x_max":1478,"o":"m 692 1180 l 520 1008 l 965 1008 l 793 1180 l 692 1180 m 0 970 l 0 692 l 296 562 l 296 970 l 0 970 m 1182 676 l 1478 676 l 1478 970 l 1182 970 l 1182 676 m 0 328 l 554 94 l 554 406 l 296 520 l 296 521 l 0 651 l 0 328 m 593 970 l 592 78 l 777 0 l 1478 0 l 1478 638 l 1182 638 l 1182 296 l 890 296 l 890 970 l 593 970 z "},"ŵ":{"ha":1522,"x_min":0,"x_max":1478,"o":"m 692 1180 l 520 1008 l 965 1008 l 793 1180 l 692 1180 m 0 970 l 0 692 l 296 562 l 296 970 l 0 970 m 1182 676 l 1478 676 l 1478 970 l 1182 970 l 1182 676 m 0 328 l 554 94 l 554 406 l 296 520 l 296 521 l 0 651 l 0 328 m 593 970 l 592 78 l 777 0 l 1478 0 l 1478 638 l 1182 638 l 1182 296 l 890 296 l 890 970 l 593 970 z "},"Ŷ":{"ha":1312,"x_min":0,"x_max":1270,"o":"m 0 971 l 0 713 l 383 713 l 296 799 l 296 971 l 0 971 m 974 971 l 974 798 l 820 644 l 820 339 l 935 339 l 1270 674 l 1270 674 l 1270 675 l 1270 675 l 1270 675 l 1270 679 l 1270 679 l 1270 971 l 974 971 m 1 675 l 336 339 l 488 339 l 488 0 l 782 0 l 782 636 l 460 636 l 421 675 l 1 675 m 584 1180 l 412 1008 l 857 1008 l 685 1180 l 584 1180 z "},"ŷ":{"ha":1315,"x_min":0,"x_max":1270,"o":"m 0 971 l 0 713 l 383 713 l 296 799 l 296 971 l 0 971 m 974 971 l 974 798 l 820 644 l 820 339 l 935 339 l 1270 674 l 1270 674 l 1270 675 l 1270 675 l 1270 675 l 1270 679 l 1270 679 l 1270 971 l 974 971 m 1 675 l 336 339 l 488 339 l 488 0 l 782 0 l 782 636 l 460 636 l 421 675 l 1 675 m 584 1180 l 412 1008 l 857 1008 l 685 1180 l 584 1180 z "},"Ÿ":{"ha":1312,"x_min":0,"x_max":1270,"o":"m 0 971 l 0 713 l 383 713 l 296 799 l 296 971 l 0 971 m 974 971 l 974 798 l 820 644 l 820 339 l 935 339 l 1270 674 l 1270 674 l 1270 675 l 1270 675 l 1270 675 l 1270 679 l 1270 679 l 1270 971 l 974 971 m 1 675 l 336 339 l 488 339 l 488 0 l 782 0 l 782 636 l 460 636 l 421 675 l 1 675 m 412 1010 l 616 1010 l 616 1181 l 412 1181 l 412 1010 m 654 1010 l 857 1010 l 857 1181 l 654 1181 l 654 1010 z "},"Ź":{"ha":1322,"x_min":0,"x_max":1273,"o":"m 502 297 l 204 0 l 1273 0 l 1273 297 l 502 297 m 784 637 l 779 633 l 362 633 l 27 297 l 0 271 l 0 0 l 151 0 l 448 297 l 448 297 l 486 336 l 903 336 l 1204 637 l 784 637 m 0 973 l 0 676 l 823 676 l 822 675 l 1242 675 l 1243 676 l 1273 706 l 1273 973 l 0 973 m 584 1180 l 412 1008 l 685 1008 l 857 1180 l 584 1180 z "},"ź":{"ha":1320,"x_min":0,"x_max":1273,"o":"m 502 297 l 204 0 l 1273 0 l 1273 297 l 502 297 m 784 637 l 779 633 l 362 633 l 27 297 l 0 271 l 0 0 l 151 0 l 448 297 l 448 297 l 486 336 l 903 336 l 1204 637 l 784 637 m 0 973 l 0 676 l 823 676 l 822 675 l 1242 675 l 1243 676 l 1273 706 l 1273 973 l 0 973 m 584 1180 l 412 1008 l 685 1008 l 857 1180 l 584 1180 z "},"Ż":{"ha":1325,"x_min":0,"x_max":1273,"o":"m 502 297 l 204 0 l 1273 0 l 1273 297 l 502 297 m 784 637 l 779 633 l 362 633 l 27 297 l 0 271 l 0 0 l 151 0 l 448 297 l 448 297 l 486 336 l 903 336 l 1204 637 l 784 637 m 0 973 l 0 676 l 823 676 l 822 675 l 1242 675 l 1243 676 l 1273 706 l 1273 973 l 0 973 m 486 1008 l 783 1008 l 783 1180 l 486 1180 l 486 1008 z "},"ż":{"ha":1315,"x_min":0,"x_max":1273,"o":"m 502 297 l 204 0 l 1273 0 l 1273 297 l 502 297 m 784 637 l 779 633 l 362 633 l 27 297 l 0 271 l 0 0 l 151 0 l 448 297 l 448 297 l 486 336 l 903 336 l 1204 637 l 784 637 m 0 973 l 0 676 l 823 676 l 822 675 l 1242 675 l 1243 676 l 1273 706 l 1273 973 l 0 973 m 486 1008 l 783 1008 l 783 1180 l 486 1180 l 486 1008 z "},"Ž":{"ha":1317,"x_min":0,"x_max":1273,"o":"m 502 297 l 204 0 l 1273 0 l 1273 297 l 502 297 m 784 637 l 779 633 l 362 633 l 27 297 l 0 271 l 0 0 l 151 0 l 448 297 l 448 297 l 486 336 l 903 336 l 1204 637 l 784 637 m 0 973 l 0 676 l 823 676 l 822 675 l 1242 675 l 1243 676 l 1273 706 l 1273 973 l 0 973 m 685 1008 l 857 1180 l 412 1180 l 584 1008 l 685 1008 z "},"ž":{"ha":1317,"x_min":0,"x_max":1273,"o":"m 502 297 l 204 0 l 1273 0 l 1273 297 l 502 297 m 784 637 l 779 633 l 362 633 l 27 297 l 0 271 l 0 0 l 151 0 l 448 297 l 448 297 l 486 336 l 903 336 l 1204 637 l 784 637 m 0 973 l 0 676 l 823 676 l 822 675 l 1242 675 l 1243 676 l 1273 706 l 1273 973 l 0 973 m 685 1008 l 857 1180 l 412 1180 l 584 1008 l 685 1008 z "},"ァ":{"ha":1059,"x_min":0,"x_max":1019,"o":"m 391 509 l 391 252 l 139 0 l 475 0 l 562 85 l 629 153 l 629 178 l 654 203 l 654 509 l 391 509 m 0 779 l 0 541 l 684 541 l 684 234 l 1019 568 l 1019 779 l 0 779 z "},"ア":{"ha":1315,"x_min":0,"x_max":1270,"o":"m 487 635 l 487 314 l 173 0 l 593 0 l 699 107 l 783 191 l 783 222 l 815 253 l 815 635 l 487 635 m 0 971 l 0 675 l 853 675 l 853 291 l 1270 709 l 1270 971 l 0 971 z "},"ィ":{"ha":1061,"x_min":0,"x_max":1021,"o":"m 0 614 l 0 376 l 37 376 l 570 614 l 0 614 m 378 0 l 616 0 l 616 349 l 378 349 l 378 0 m 1021 779 l 649 614 l 646 614 l 113 376 l 699 376 l 782 413 l 1021 519 l 1021 779 z "},"イ":{"ha":1315,"x_min":0,"x_max":1271,"o":"m 0 766 l 0 469 l 47 469 l 711 766 l 0 766 m 471 0 l 768 0 l 768 434 l 471 434 l 471 0 m 1271 970 l 808 766 l 805 766 l 141 469 l 871 469 l 974 514 l 1271 646 l 1271 970 z "},"ゥ":{"ha":1057,"x_min":0,"x_max":1019,"o":"m 781 323 l 781 322 l 591 238 l 238 238 l 238 0 l 642 0 l 696 24 l 781 62 l 1019 168 l 1019 431 l 781 323 m 0 614 l 0 376 l 238 297 l 238 614 l 0 614 m 391 779 l 391 614 l 266 614 l 266 376 l 781 376 l 781 357 l 1019 465 l 1019 614 l 629 614 l 629 779 l 391 779 z "},"ウ":{"ha":1310,"x_min":0,"x_max":1269,"o":"m 972 403 l 972 401 l 736 296 l 296 296 l 296 0 l 798 0 l 867 31 l 972 77 l 1269 208 l 1269 536 l 972 403 m 0 764 l 0 468 l 296 370 l 296 764 l 0 764 m 486 970 l 486 764 l 331 764 l 331 468 l 972 468 l 972 445 l 1269 578 l 1269 764 l 783 764 l 783 970 l 486 970 z "},"ェ":{"ha":1054,"x_min":0,"x_max":1016,"o":"m 0 777 l 0 539 l 1016 539 l 1016 777 l 0 777 m 654 0 l 1016 0 l 1016 237 l 654 237 l 654 0 m 389 511 l 389 237 l 0 237 l 0 0 l 627 0 l 627 511 l 389 511 z "},"エ":{"ha":1313,"x_min":0,"x_max":1273,"o":"m 0 973 l 0 676 l 1273 676 l 1273 973 l 0 973 m 820 0 l 1273 0 l 1273 298 l 820 298 l 820 0 m 488 641 l 488 298 l 0 298 l 0 0 l 785 0 l 785 641 l 488 641 z "},"ォ":{"ha":1057,"x_min":0,"x_max":1019,"o":"m 662 136 l 662 0 l 900 0 l 900 374 l 662 136 m 662 689 l 900 689 l 900 779 l 662 779 l 662 689 m 0 660 l 238 422 l 572 422 l 151 0 l 487 0 l 662 175 l 662 175 l 900 413 l 900 422 l 1019 422 l 1019 660 l 0 660 z "},"オ":{"ha":1311,"x_min":0,"x_max":1271,"o":"m 826 170 l 826 0 l 1122 0 l 1122 466 l 826 170 m 826 859 l 1122 859 l 1122 972 l 826 972 l 826 859 m 0 823 l 297 526 l 714 526 l 187 0 l 607 0 l 826 218 l 826 218 l 1122 515 l 1122 526 l 1271 526 l 1271 823 l 0 823 z "},"カ":{"ha":1307,"x_min":0,"x_max":1272,"o":"m 0 823 l 0 526 l 166 526 l 281 823 l 0 823 m 376 972 l 318 823 l 317 823 l 203 526 l 203 526 l 1 0 l 319 0 l 522 526 l 1272 526 l 1272 823 l 636 823 l 694 972 l 376 972 m 975 492 l 975 298 l 552 298 l 848 1 l 1269 1 l 1272 491 l 1272 492 l 975 492 z "},"ガ":{"ha":1313,"x_min":0,"x_max":1269,"o":"m 973 812 l 1093 812 l 1093 1008 l 973 1008 l 973 812 m 1149 812 l 1269 812 l 1269 1008 l 1149 1008 l 1149 812 m 0 822 l 0 526 l 166 526 l 280 822 l 0 822 m 972 491 l 972 297 l 551 297 l 847 1 l 1267 1 l 1269 491 l 972 491 m 375 970 l 317 822 l 317 822 l 203 526 l 203 526 l 1 0 l 318 0 l 521 526 l 1269 526 l 1269 786 l 944 786 l 944 821 l 1269 821 l 1269 822 l 635 822 l 692 970 l 375 970 z "},"キ":{"ha":1272,"x_min":0,"x_max":1221,"o":"m 1163 862 l 655 862 l 765 577 l 1163 577 l 1163 862 m 572 192 l 646 0 l 952 0 l 878 192 l 572 192 m 1221 225 l 1221 511 l 755 511 l 686 689 l 620 862 l 619 862 l 578 970 l 272 970 l 314 862 l 64 862 l 64 577 l 424 577 l 450 511 l 0 511 l 0 225 l 1221 225 z "},"ギ":{"ha":1317,"x_min":0,"x_max":1221,"o":"m 936 819 l 1052 819 l 1052 1008 l 936 1008 l 936 819 m 902 781 l 902 862 l 655 862 l 765 577 l 1163 577 l 1163 781 l 902 781 m 572 192 l 646 0 l 952 0 l 878 192 l 572 192 m 1221 225 l 1221 511 l 755 511 l 686 689 l 620 862 l 619 862 l 578 970 l 272 970 l 314 862 l 64 862 l 64 577 l 424 577 l 450 511 l 0 511 l 0 225 l 1221 225 m 1105 819 l 1221 819 l 1221 1008 l 1105 1008 l 1105 819 z "},"ク":{"ha":1311,"x_min":0,"x_max":1267,"o":"m 911 583 l 801 297 l 293 297 l 293 0 l 1004 0 l 1082 202 l 1229 583 l 911 583 m 201 972 l 0 451 l 318 451 l 382 617 l 383 617 l 497 914 l 497 914 l 519 972 l 201 972 m 534 914 l 420 617 l 924 617 l 924 617 l 1242 617 l 1267 683 l 1267 914 l 534 914 z "},"グ":{"ha":1307,"x_min":0,"x_max":1266,"o":"m 970 812 l 1090 812 l 1090 1009 l 970 1009 l 970 812 m 1145 812 l 1266 812 l 1266 1009 l 1145 1009 l 1145 812 m 909 582 l 800 296 l 293 296 l 293 0 l 1003 0 l 1081 201 l 1227 582 l 909 582 m 201 970 l 0 450 l 318 450 l 382 616 l 382 616 l 496 913 l 496 913 l 519 970 l 201 970 m 937 775 l 937 913 l 534 913 l 420 616 l 923 616 l 923 616 l 1241 616 l 1266 682 l 1266 775 l 937 775 z "},"ケ":{"ha":1315,"x_min":0,"x_max":1274,"o":"m 650 468 l 585 297 l 0 297 l 0 0 l 787 0 l 968 468 l 650 468 m 342 503 l 342 503 l 498 908 l 498 908 l 500 912 l 500 912 l 522 970 l 204 970 l 3 450 l 321 450 l 342 503 m 1274 800 l 1274 779 l 1274 800 l 945 800 l 498 800 l 385 503 l 669 503 l 669 503 l 987 503 l 987 503 l 1274 503 l 1274 800 l 1274 800 z "},"ゲ":{"ha":1314,"x_min":0,"x_max":1275,"o":"m 650 468 l 585 297 l 0 297 l 0 0 l 787 0 l 968 468 l 650 468 m 342 503 l 342 503 l 498 908 l 498 908 l 500 912 l 500 912 l 522 970 l 204 970 l 3 450 l 321 450 l 342 503 m 970 812 l 1090 812 l 1090 1009 l 970 1009 l 970 812 m 1145 812 l 1266 812 l 1266 1009 l 1145 1009 l 1145 812 m 939 779 l 939 794 l 497 794 l 383 498 l 1275 499 l 1275 779 l 939 779 z "},"コ":{"ha":1317,"x_min":0,"x_max":1275,"o":"m 299 0 l 942 0 l 942 298 l 0 298 l 299 0 m 976 643 l 976 420 l 977 420 l 977 0 l 1275 0 l 1275 643 l 976 643 m 0 975 l 0 677 l 1275 675 l 1273 976 l 0 975 z "},"ゴ":{"ha":1315,"x_min":0,"x_max":1275,"o":"m 298 0 l 942 0 l 942 298 l 0 298 l 298 0 m 976 643 l 976 420 l 977 420 l 977 0 l 1275 0 l 1275 643 l 976 643 m 977 816 l 1099 816 l 1099 1013 l 977 1013 l 977 816 m 1154 816 l 1275 816 l 1275 1013 l 1154 1013 l 1154 816 m 0 975 l 0 677 l 892 677 l 892 678 l 1275 678 l 1275 781 l 944 781 l 944 975 l 0 975 z "},"サ":{"ha":1310,"x_min":0,"x_max":1269,"o":"m 495 970 l 199 970 l 199 904 l 495 904 l 495 970 m 0 869 l 0 573 l 199 573 l 199 382 l 495 382 l 495 573 l 755 573 l 755 869 l 0 869 m 791 395 l 692 296 l 0 296 l 296 0 l 815 0 l 884 69 l 1038 223 l 1088 273 l 1088 573 l 1269 573 l 1269 866 l 1085 866 l 1083 969 l 791 970 l 791 395 z "},"ザ":{"ha":1306,"x_min":0,"x_max":1269,"o":"m 972 812 l 1093 812 l 1093 1008 l 972 1008 l 972 812 m 1148 812 l 1269 812 l 1269 1008 l 1148 1008 l 1148 812 m 495 970 l 199 970 l 199 904 l 495 904 l 495 970 m 0 869 l 0 573 l 199 573 l 199 382 l 495 382 l 495 573 l 755 573 l 755 869 l 0 869 m 791 395 l 692 296 l 0 296 l 296 0 l 815 0 l 884 69 l 1038 223 l 1088 273 l 1088 573 l 1269 573 l 1269 772 l 933 772 l 933 787 l 936 969 l 791 970 l 791 395 z "},"シ":{"ha":1272,"x_min":0,"x_max":1225,"o":"m 1 970 l 1 673 l 652 673 l 524 970 l 1 970 m 1 637 l 1 340 l 652 340 l 531 637 l 1 637 m 0 297 l 0 0 l 608 0 l 724 297 l 0 297 m 907 674 l 762 297 l 761 297 l 646 0 l 965 0 l 1225 674 l 907 674 z "},"ジ":{"ha":1316,"x_min":0,"x_max":1271,"o":"m 974 812 l 1095 812 l 1095 1009 l 974 1009 l 974 812 m 1150 812 l 1271 812 l 1271 1009 l 1150 1009 l 1150 812 m 1 970 l 1 673 l 652 673 l 524 970 l 1 970 m 1 637 l 1 340 l 652 340 l 531 637 l 1 637 m 0 297 l 0 0 l 608 0 l 724 297 l 0 297 m 907 674 l 762 297 l 761 297 l 646 0 l 965 0 l 1225 674 l 907 674 z "},"ス":{"ha":1330,"x_min":0,"x_max":1272,"o":"m 718 640 l 465 387 l 675 178 l 675 178 l 852 0 l 1272 0 l 885 387 l 1137 640 l 718 640 m 375 297 l 296 297 l 0 1 l 499 1 l 543 45 l 650 153 l 441 363 l 375 297 m 0 970 l 0 674 l 1172 674 l 1270 772 l 1270 773 l 1270 970 l 0 970 z "},"ズ":{"ha":1333,"x_min":0,"x_max":1272,"o":"m 973 812 l 1094 812 l 1094 1009 l 973 1009 l 973 812 m 1149 812 l 1270 812 l 1270 1009 l 1149 1009 l 1149 812 m 718 640 l 465 387 l 675 178 l 675 178 l 852 0 l 1272 0 l 885 387 l 1137 640 l 718 640 m 375 297 l 296 297 l 0 1 l 499 1 l 543 45 l 650 153 l 441 363 l 375 297 m 0 970 l 0 674 l 1172 674 l 1270 772 l 1270 773 l 935 773 l 935 970 l 0 970 z "},"セ":{"ha":1324,"x_min":0,"x_max":1272,"o":"m 97 878 l 394 878 l 394 972 l 97 972 l 97 878 m 677 543 l 469 334 l 889 334 l 1097 543 l 1126 571 l 1126 840 l 974 840 l 677 543 l 677 543 m 0 840 l 0 543 l 97 543 l 97 0 l 393 0 l 393 368 l 394 368 l 394 543 l 628 543 l 925 840 l 0 840 m 429 297 l 429 0 l 975 0 l 1272 297 l 429 297 z "},"ゼ":{"ha":1326,"x_min":0,"x_max":1270,"o":"m 974 813 l 1095 813 l 1095 1010 l 974 1010 l 974 813 m 1149 813 l 1270 813 l 1270 1010 l 1149 1010 l 1149 813 m 393 971 l 97 971 l 97 878 l 393 878 l 393 971 m 0 839 l 0 542 l 97 542 l 97 0 l 393 0 l 393 368 l 393 368 l 393 542 l 628 542 l 924 839 l 0 839 m 428 297 l 428 0 l 974 0 l 1270 297 l 428 297 m 932 777 l 932 798 l 677 542 l 677 542 l 469 334 l 888 334 l 1097 542 l 1125 570 l 1125 777 l 932 777 z "},"ソ":{"ha":1317,"x_min":0,"x_max":1270,"o":"m 0 296 l 296 0 l 410 0 l 707 296 l 0 296 m 973 970 l 973 513 l 459 0 l 880 0 l 1215 336 l 1270 390 l 1270 970 l 973 970 m 0 624 l 296 523 l 296 971 l 0 971 l 0 624 z "},"ゾ":{"ha":1313,"x_min":0,"x_max":1269,"o":"m 972 813 l 1093 813 l 1093 1010 l 972 1010 l 972 813 m 1148 813 l 1269 813 l 1269 1010 l 1148 1010 l 1148 813 m 0 296 l 296 0 l 410 0 l 706 296 l 0 296 m 972 775 l 972 513 l 458 0 l 879 0 l 1215 336 l 1269 390 l 1269 775 l 972 775 m 0 624 l 296 523 l 296 971 l 0 971 l 0 624 z "},"タ":{"ha":1345,"x_min":0,"x_max":1305,"o":"m 193 933 l 0 433 l 306 433 l 368 593 l 368 593 l 477 878 l 477 878 l 498 933 l 193 933 m 1217 878 l 513 878 l 404 593 l 888 593 l 888 593 l 1194 593 l 1217 656 l 1217 878 m 422 559 l 541 319 l 782 319 l 769 285 l 281 285 l 281 0 l 964 0 l 1040 194 l 1088 319 l 1305 319 l 1190 559 l 422 559 z "},"ダ":{"ha":1363,"x_min":0,"x_max":1305,"o":"m 932 781 l 1049 781 l 1049 970 l 932 970 l 932 781 m 1102 781 l 1218 781 l 1218 970 l 1102 970 l 1102 781 m 193 933 l 0 433 l 306 433 l 368 593 l 368 593 l 477 878 l 477 878 l 498 933 l 193 933 m 899 748 l 899 878 l 513 878 l 404 593 l 888 593 l 888 593 l 1194 593 l 1217 656 l 1217 748 l 899 748 m 422 559 l 541 319 l 782 319 l 769 285 l 281 285 l 281 0 l 964 0 l 1040 194 l 1088 319 l 1305 319 l 1190 559 l 422 559 z "},"チ":{"ha":1307,"x_min":0,"x_max":1268,"o":"m 856 632 l 741 336 l 1268 336 l 1268 632 l 856 632 m 0 632 l 0 336 l 347 336 l 462 632 l 0 632 m 148 970 l 148 673 l 515 673 l 499 632 l 499 632 l 385 336 l 385 336 l 256 0 l 573 0 l 703 336 l 703 336 l 819 632 l 817 632 l 833 673 l 1125 673 l 1125 970 l 148 970 z "},"ヂ":{"ha":1311,"x_min":0,"x_max":1269,"o":"m 972 812 l 1093 812 l 1093 1008 l 972 1008 l 972 812 m 1148 812 l 1269 812 l 1269 1008 l 1148 1008 l 1148 812 m 856 632 l 741 336 l 1268 336 l 1268 632 l 856 632 m 0 632 l 0 336 l 347 336 l 462 632 l 0 632 m 148 970 l 148 673 l 515 673 l 499 632 l 499 632 l 385 336 l 385 336 l 256 0 l 573 0 l 703 336 l 703 336 l 819 632 l 817 632 l 833 673 l 1125 673 l 1125 779 l 935 779 l 935 970 l 148 970 z "},"ッ":{"ha":1067,"x_min":0,"x_max":1018,"o":"m 0 238 l 238 0 l 329 0 l 566 238 l 0 238 m 781 779 l 781 411 l 368 0 l 705 0 l 975 269 l 1018 313 l 1018 779 l 781 779 m 0 500 l 238 419 l 238 779 l 0 779 l 0 500 m 311 500 l 549 419 l 549 779 l 311 779 l 311 500 z "},"ツ":{"ha":1317,"x_min":0,"x_max":1269,"o":"m 0 296 l 296 0 l 410 0 l 706 296 l 0 296 m 972 970 l 972 513 l 458 0 l 879 0 l 1215 336 l 1269 390 l 1269 970 l 972 970 m 0 624 l 296 523 l 296 971 l 0 971 l 0 624 m 387 624 l 684 523 l 684 971 l 387 971 l 387 624 z "},"ヅ":{"ha":1312,"x_min":0,"x_max":1269,"o":"m 972 813 l 1093 813 l 1093 1010 l 972 1010 l 972 813 m 1148 813 l 1269 813 l 1269 1010 l 1148 1010 l 1148 813 m 0 296 l 296 0 l 410 0 l 706 296 l 0 296 m 972 775 l 972 513 l 458 0 l 879 0 l 1215 336 l 1269 390 l 1269 775 l 972 775 m 0 624 l 296 523 l 296 971 l 0 971 l 0 624 m 387 624 l 684 523 l 684 971 l 387 971 l 387 624 z "},"テ":{"ha":1312,"x_min":0,"x_max":1270,"o":"m 149 970 l 149 677 l 1124 677 l 1124 970 l 149 970 m 0 635 l 0 339 l 471 339 l 340 0 l 658 0 l 707 127 l 706 127 l 902 635 l 0 635 m 939 635 l 825 339 l 1270 339 l 1270 635 l 939 635 z "},"デ":{"ha":1308,"x_min":0,"x_max":1270,"o":"m 973 812 l 1094 812 l 1094 1009 l 973 1009 l 973 812 m 1149 812 l 1270 812 l 1270 1009 l 1149 1009 l 1149 812 m 149 970 l 149 677 l 1128 677 l 1128 778 l 951 777 l 940 774 l 940 970 l 149 970 m 0 635 l 0 339 l 471 339 l 340 0 l 658 0 l 707 127 l 706 127 l 902 635 l 0 635 m 939 635 l 825 339 l 1270 339 l 1270 635 l 939 635 z "},"ト":{"ha":1322,"x_min":0,"x_max":1272,"o":"m 0 676 l 297 676 l 297 972 l 0 972 l 0 676 m 0 642 l 0 0 l 297 0 l 297 338 l 1272 338 l 975 634 l 297 634 l 297 642 l 0 642 z "},"ド":{"ha":1328,"x_min":0,"x_max":1272,"o":"m 975 810 l 1095 810 l 1095 1007 l 975 1007 l 975 810 m 1150 810 l 1272 810 l 1272 1007 l 1150 1007 l 1150 810 m 0 676 l 297 676 l 297 972 l 0 972 l 0 676 m 0 642 l 0 0 l 297 0 l 297 338 l 1272 338 l 975 634 l 297 634 l 297 642 l 0 642 z "},"ナ":{"ha":1315,"x_min":0,"x_max":1269,"o":"m 296 869 l 0 573 l 755 573 l 755 869 l 296 869 m 791 395 l 692 296 l 296 296 l 0 0 l 815 0 l 884 69 l 1038 223 l 1088 273 l 1088 573 l 1269 573 l 1269 866 l 1085 866 l 1083 969 l 791 970 l 791 395 z "},"ニ":{"ha":1322,"x_min":0,"x_max":1273,"o":"m 0 0 l 1273 0 l 1273 297 l 0 297 l 0 0 m 149 970 l 149 677 l 1124 677 l 1124 970 l 149 970 z "},"ヌ":{"ha":1320,"x_min":0,"x_max":1276,"o":"m 0 973 l 0 675 l 705 675 l 1002 973 l 0 973 m 1053 973 l 726 646 l 726 646 l 715 635 l 64 635 l 359 338 l 418 338 l 377 297 l 0 297 l 0 0 l 502 0 l 545 43 l 742 241 l 854 129 l 1275 129 l 953 451 l 1276 774 l 1276 973 l 1053 973 z "},"ネ":{"ha":1314,"x_min":0,"x_max":1270,"o":"m 323 474 l 26 178 l 487 178 l 487 0 l 783 0 l 783 172 l 481 474 l 323 474 m 688 529 l 565 474 l 530 474 l 825 180 l 825 180 l 825 179 l 1245 179 l 1055 369 l 1270 464 l 1270 784 l 688 529 m 784 972 l 487 972 l 487 846 l 0 846 l 0 549 l 648 549 l 1270 822 l 1270 846 l 784 846 l 784 972 z "},"ノ":{"ha":1316,"x_min":0,"x_max":1272,"o":"m 975 972 l 975 832 l 440 297 l 438 297 l 140 0 l 563 0 l 625 62 l 1201 638 l 1272 709 l 1272 972 l 975 972 m 297 297 l 0 0 l 86 0 l 383 297 l 297 297 z "},"ハ":{"ha":1375,"x_min":0,"x_max":1329,"o":"m 646 970 l 638 967 l 1011 0 l 1325 0 l 1329 1 l 955 970 l 646 970 m 374 970 l 0 1 l 3 0 l 317 0 l 622 790 l 551 970 l 374 970 z "},"バ":{"ha":1378,"x_min":0,"x_max":1333,"o":"m 964 814 l 1085 814 l 1085 1012 l 964 1012 l 964 814 m 1140 814 l 1261 814 l 1261 1012 l 1140 1012 l 1140 814 m 375 973 l 0 1 l 3 0 l 318 0 l 624 792 l 552 973 l 375 973 m 648 973 l 640 970 l 1014 0 l 1329 0 l 1333 1 l 1031 780 l 927 780 l 927 973 l 648 973 z "},"パ":{"ha":1385,"x_min":0,"x_max":1329,"o":"m 961 812 l 1257 812 l 1257 1009 l 961 1009 l 961 812 m 1043 950 l 1177 950 l 1177 871 l 1043 871 l 1043 950 m 374 970 l 0 1 l 3 0 l 317 0 l 623 790 l 551 970 l 374 970 m 646 970 l 638 968 l 1011 0 l 1325 0 l 1329 1 l 1029 778 l 925 778 l 925 970 l 646 970 z "},"ヒ":{"ha":1312,"x_min":0,"x_max":1270,"o":"m 0 299 l 0 0 l 1270 0 l 1270 297 l 296 297 l 296 299 l 0 299 m 0 970 l 0 334 l 296 334 l 296 468 l 297 468 l 297 765 l 296 765 l 296 970 l 0 970 m 332 765 l 332 468 l 973 468 l 1267 765 l 332 765 z "},"ビ":{"ha":1312,"x_min":0,"x_max":1270,"o":"m 973 812 l 1094 812 l 1094 1009 l 973 1009 l 973 812 m 1149 812 l 1270 812 l 1270 1009 l 1149 1009 l 1149 812 m 0 299 l 0 0 l 1270 0 l 1270 297 l 296 297 l 296 299 l 0 299 m 0 970 l 0 334 l 296 334 l 296 468 l 297 468 l 297 765 l 296 765 l 296 970 l 0 970 m 332 765 l 332 468 l 973 468 l 1267 765 l 332 765 z "},"ピ":{"ha":1309,"x_min":0,"x_max":1269,"o":"m 972 812 l 1269 812 l 1269 1008 l 972 1008 l 972 812 m 1055 949 l 1188 949 l 1188 871 l 1055 871 l 1055 949 m 0 299 l 0 0 l 1269 0 l 1269 297 l 296 297 l 296 299 l 0 299 m 0 970 l 0 334 l 296 334 l 296 468 l 296 468 l 296 764 l 296 764 l 296 970 l 0 970 m 332 764 l 332 468 l 972 468 l 1267 764 l 332 764 z "},"フ":{"ha":1317,"x_min":0,"x_max":1269,"o":"m 0 970 l 0 677 l 972 677 l 972 675 l 1269 675 l 1269 969 l 0 970 m 0 296 l 0 0 l 399 0 l 695 296 l 0 296 m 972 640 l 972 524 l 745 296 l 744 296 l 448 0 l 867 0 l 972 105 l 1164 297 l 1269 401 l 1269 640 l 972 640 z "},"ブ":{"ha":1310,"x_min":0,"x_max":1269,"o":"m 972 812 l 1093 812 l 1093 1008 l 972 1008 l 972 812 m 1148 812 l 1269 812 l 1269 1008 l 1148 1008 l 1148 812 m 0 970 l 0 677 l 972 677 l 972 675 l 1269 675 l 1269 775 l 950 776 l 939 774 l 940 970 l 0 970 m 0 296 l 0 0 l 399 0 l 695 296 l 0 296 m 972 640 l 972 524 l 745 296 l 744 296 l 448 0 l 867 0 l 972 105 l 1164 297 l 1269 401 l 1269 640 l 972 640 z "},"プ":{"ha":1326,"x_min":0,"x_max":1270,"o":"m 0 971 l 0 677 l 974 677 l 974 675 l 1270 675 l 1270 776 l 951 777 l 941 774 l 941 971 l 0 971 m 0 297 l 0 0 l 399 0 l 696 297 l 0 297 m 974 641 l 974 525 l 745 297 l 745 297 l 448 0 l 869 0 l 974 105 l 1166 297 l 1270 402 l 1270 641 l 974 641 m 974 813 l 1270 813 l 1270 1010 l 974 1010 l 974 813 m 1056 951 l 1190 951 l 1190 872 l 1056 872 l 1056 951 z "},"ヘ":{"ha":1279,"x_min":0,"x_max":1223,"o":"m 253 970 l 536 686 l 538 686 l 1223 0 l 1223 404 l 711 917 l 657 970 l 253 970 m 205 970 l 130 895 l 0 765 l 0 361 l 325 686 l 490 686 l 205 970 l 205 970 z "},"ベ":{"ha":1276,"x_min":0,"x_max":1223,"o":"m 937 818 l 1054 818 l 1054 1008 l 937 1008 l 937 818 m 1107 818 l 1223 818 l 1223 1008 l 1107 1008 l 1107 818 m 253 970 l 536 686 l 538 686 l 1223 0 l 1223 404 l 711 917 l 657 970 l 253 970 m 205 970 l 130 895 l 0 765 l 0 361 l 325 686 l 490 686 l 205 970 l 205 970 z "},"ペ":{"ha":1280,"x_min":0,"x_max":1227,"o":"m 940 818 l 1227 818 l 1227 1008 l 940 1008 l 940 818 m 1019 951 l 1148 951 l 1148 875 l 1019 875 l 1019 951 m 254 972 l 538 688 l 539 688 l 1227 0 l 1227 405 l 712 919 l 659 972 l 254 972 m 205 972 l 131 897 l 0 767 l 0 362 l 326 688 l 491 688 l 206 972 l 205 972 z "},"ホ":{"ha":1325,"x_min":0,"x_max":1270,"o":"m 207 528 l 3 0 l 321 0 l 451 336 l 451 528 l 207 528 m 823 531 l 823 340 l 952 3 l 1270 3 l 1067 531 l 823 531 m 0 574 l 454 574 l 454 871 l 0 871 l 0 574 m 487 971 l 487 907 l 488 907 l 488 397 l 487 397 l 487 0 l 783 0 l 783 971 l 487 971 m 818 871 l 818 574 l 1270 574 l 1269 871 l 818 871 z "},"ボ":{"ha":1317,"x_min":0,"x_max":1270,"o":"m 207 528 l 3 0 l 321 0 l 451 336 l 451 528 l 207 528 m 823 531 l 823 340 l 952 3 l 1270 3 l 1067 531 l 823 531 m 0 574 l 454 574 l 454 871 l 0 871 l 0 574 m 487 971 l 487 907 l 488 907 l 488 397 l 487 397 l 487 0 l 783 0 l 783 971 l 487 971 m 818 871 l 818 574 l 1270 574 l 1270 775 l 937 775 l 937 871 l 818 871 m 972 812 l 1093 812 l 1093 1008 l 972 1008 l 972 812 m 1148 812 l 1269 812 l 1269 1008 l 1148 1008 l 1148 812 z "},"ポ":{"ha":1324,"x_min":0,"x_max":1270,"o":"m 974 813 l 1270 813 l 1270 1010 l 974 1010 l 974 813 m 1056 951 l 1190 951 l 1190 872 l 1056 872 l 1056 951 m 207 528 l 3 0 l 321 0 l 451 336 l 451 528 l 207 528 m 823 531 l 823 340 l 952 3 l 1270 3 l 1067 531 l 823 531 m 0 574 l 454 574 l 454 871 l 0 871 l 0 574 m 487 971 l 487 907 l 488 907 l 488 397 l 487 397 l 487 0 l 783 0 l 783 971 l 487 971 m 818 871 l 818 574 l 1270 574 l 1270 775 l 937 775 l 937 871 l 818 871 z "},"マ":{"ha":1319,"x_min":0,"x_max":1274,"o":"m 583 546 l 162 546 l 707 0 l 1128 0 l 850 279 l 583 546 l 583 546 m 0 974 l 298 676 l 826 676 l 664 514 l 874 304 l 1274 703 l 1274 974 l 0 974 z "},"ミ":{"ha":1316,"x_min":0,"x_max":1270,"o":"m 0 296 l 153 0 l 1270 0 l 1116 296 l 0 296 m 87 971 l 236 674 l 1126 674 l 972 971 l 87 971 m 914 631 l 87 631 l 237 334 l 1068 334 l 914 631 z "},"ム":{"ha":1316,"x_min":0,"x_max":1271,"o":"m 375 971 l 128 333 l 446 333 l 692 971 l 375 971 m 665 636 l 766 407 l 766 407 l 945 0 l 1271 0 l 1139 298 l 989 636 l 665 636 m 115 298 l 0 0 l 907 0 l 777 298 l 115 298 z "},"メ":{"ha":1318,"x_min":0,"x_max":1272,"o":"m 0 297 l 0 0 l 86 0 l 383 297 l 0 297 m 975 972 l 975 832 l 889 747 l 1099 536 l 1200 637 l 1272 709 l 1272 972 l 975 972 m 334 825 l 651 509 l 440 297 l 437 297 l 140 0 l 563 0 l 624 62 l 861 298 l 1156 3 l 1156 423 l 753 826 l 334 825 z "},"モ":{"ha":1310,"x_min":0,"x_max":1270,"o":"m 652 636 l 652 635 l 239 635 l 239 636 l 0 636 l 0 339 l 296 339 l 296 0 l 1270 0 l 1270 297 l 593 297 l 593 339 l 854 339 l 1151 636 l 652 636 m 0 970 l 0 674 l 867 674 l 867 970 l 0 970 z "},"ャ":{"ha":1048,"x_min":0,"x_max":1019,"o":"m 30 779 l 59 703 l 0 703 l 0 465 l 151 465 l 330 0 l 585 0 l 406 465 l 407 465 l 315 703 l 314 703 l 285 779 l 30 779 m 979 703 l 345 703 l 437 465 l 741 465 l 979 703 m 1019 703 l 781 465 l 781 465 l 781 222 l 1019 461 l 1019 703 l 1019 703 z "},"ヤ":{"ha":1363,"x_min":0,"x_max":1322,"o":"m 39 1011 l 77 912 l 0 912 l 0 604 l 196 604 l 429 0 l 760 0 l 527 604 l 528 604 l 408 912 l 408 912 l 370 1011 l 39 1011 m 1271 912 l 447 912 l 567 604 l 962 604 l 1271 912 m 1322 912 l 1013 604 l 1014 604 l 1014 288 l 1322 598 l 1322 912 l 1322 912 z "},"ュ":{"ha":1051,"x_min":0,"x_max":1019,"o":"m 240 779 l 4 543 l 806 543 l 806 779 l 240 779 m 568 514 l 568 239 l 0 239 l 0 0 l 806 0 l 806 514 l 568 514 m 833 0 l 1019 0 l 1019 239 l 833 239 l 833 0 z "},"ユ":{"ha":1318,"x_min":0,"x_max":1270,"o":"m 299 970 l 5 677 l 1004 675 l 1004 970 l 299 970 m 707 640 l 707 297 l 0 297 l 0 0 l 1004 0 l 1004 640 l 707 640 m 1038 0 l 1270 0 l 1270 297 l 1038 297 l 1038 0 z "},"ョ":{"ha":1054,"x_min":0,"x_max":1016,"o":"m 0 777 l 237 539 l 732 539 l 732 541 l 1016 541 l 1016 777 l 0 777 m 0 0 l 751 0 l 751 237 l 237 237 l 0 0 m 778 512 l 778 507 l 239 507 l 239 270 l 778 270 l 778 256 l 779 256 l 779 0 l 1016 0 l 1016 512 l 778 512 z "},"ヨ":{"ha":1317,"x_min":0,"x_max":1270,"o":"m 0 970 l 296 674 l 916 674 l 916 675 l 1270 675 l 1270 970 l 0 970 m 0 0 l 939 0 l 939 297 l 296 297 l 0 0 m 972 640 l 972 633 l 299 633 l 299 337 l 972 337 l 972 321 l 973 321 l 973 0 l 1270 0 l 1270 640 l 972 640 z "},"ラ":{"ha":1318,"x_min":0,"x_max":1272,"o":"m 149 677 l 1124 677 l 1124 970 l 149 970 l 149 677 m 0 637 l 0 340 l 758 340 l 1055 637 l 0 637 m 1106 637 l 773 303 l 773 303 l 767 298 l 593 297 l 297 0 l 814 1 l 890 1 l 958 68 l 1229 340 l 1272 382 l 1272 637 l 1106 637 z "},"リ":{"ha":1335,"x_min":0,"x_max":1275,"o":"m 0 456 l 296 456 l 296 971 l 0 971 l 0 456 m 979 971 l 979 569 l 1275 865 l 1275 971 l 979 971 m 878 0 l 1275 397 l 1275 817 l 923 465 l 755 296 l 431 296 l 134 0 l 878 0 z "},"ル":{"ha":1319,"x_min":0,"x_max":1271,"o":"m 159 858 l 159 412 l 0 1 l 318 1 l 433 297 l 455 357 l 455 858 l 159 858 m 907 297 l 859 297 l 859 0 l 1029 0 l 1270 241 l 1271 661 l 907 297 m 597 0 l 821 0 l 821 970 l 524 970 l 524 1 l 597 1 l 597 0 z "},"レ":{"ha":1309,"x_min":0,"x_max":1272,"o":"m 0 972 l 0 0 l 233 0 l 531 298 l 297 298 l 297 972 l 0 972 m 850 567 l 581 298 l 580 298 l 283 0 l 704 0 l 1272 568 l 850 567 z "},"ロ":{"ha":1315,"x_min":0,"x_max":1269,"o":"m 1269 0 l 1269 635 l 972 635 l 972 296 l 0 296 l 0 0 l 1269 0 m 296 334 l 296 673 l 1269 673 l 1269 970 l 0 970 l 0 334 l 296 334 z "},"ヮ":{"ha":1069,"x_min":0,"x_max":1019,"o":"m 238 238 l 0 0 l 320 0 l 559 238 l 238 238 m 781 515 l 781 421 l 598 238 l 597 238 l 359 0 l 697 0 l 781 85 l 936 239 l 1019 323 l 1019 515 l 781 515 m 0 779 l 0 325 l 238 325 l 238 544 l 781 544 l 781 542 l 1019 542 l 1019 779 l 238 779 l 0 779 z "},"ワ":{"ha":1320,"x_min":0,"x_max":1269,"o":"m 296 296 l 0 0 l 399 0 l 695 296 l 296 296 m 972 640 l 972 524 l 745 296 l 744 296 l 448 0 l 867 0 l 972 105 l 1164 297 l 1269 401 l 1269 640 l 972 640 m 0 970 l 0 404 l 296 404 l 296 677 l 972 677 l 972 675 l 1269 675 l 1269 969 l 296 970 l 0 970 z "},"ヲ":{"ha":1317,"x_min":0,"x_max":1273,"o":"m 0 973 l 0 676 l 976 676 l 976 633 l 297 633 l 0 340 l 741 340 l 1273 872 l 1273 973 l 0 973 m 790 340 l 790 340 l 747 297 l 0 297 l 0 0 l 871 0 l 896 25 l 1230 359 l 1273 402 l 1273 823 l 790 340 z "},"ン":{"ha":1272,"x_min":0,"x_max":1225,"o":"m 1 970 l 1 673 l 652 673 l 524 970 l 1 970 m 0 297 l 0 0 l 608 0 l 724 297 l 0 297 m 907 674 l 762 297 l 761 297 l 646 0 l 965 0 l 1225 674 l 907 674 z "},"ヴ":{"ha":1315,"x_min":0,"x_max":1269,"o":"m 972 812 l 1093 812 l 1093 1008 l 972 1008 l 972 812 m 1148 812 l 1269 812 l 1269 1008 l 1148 1008 l 1148 812 m 972 403 l 972 401 l 736 296 l 296 296 l 296 0 l 798 0 l 867 31 l 972 77 l 1269 208 l 1269 536 l 972 403 m 0 764 l 0 468 l 296 370 l 296 764 l 0 764 m 486 970 l 486 764 l 331 764 l 331 468 l 972 468 l 972 445 l 1269 578 l 1269 764 l 783 764 l 783 970 l 486 970 z "},"ヵ":{"ha":1061,"x_min":0,"x_max":1019,"o":"m 0 660 l 0 422 l 133 422 l 225 660 l 0 660 m 301 779 l 255 660 l 254 660 l 163 422 l 163 422 l 1 0 l 256 0 l 418 422 l 1019 422 l 1019 660 l 510 660 l 556 779 l 301 779 m 781 394 l 781 239 l 443 239 l 680 1 l 1017 1 l 1019 394 l 1019 394 l 781 394 z "},"ヶ":{"ha":1059,"x_min":0,"x_max":1019,"o":"m 523 376 l 470 239 l 0 239 l 0 0 l 633 0 l 778 376 l 523 376 m 275 404 l 275 404 l 400 730 l 400 730 l 401 733 l 401 733 l 419 779 l 164 779 l 3 362 l 258 362 l 275 404 m 1019 642 l 1019 626 l 1019 642 l 755 642 l 396 642 l 304 404 l 534 404 l 534 404 l 789 404 l 789 404 l 1019 404 l 1019 642 l 1019 642 z "},"ー":{"ha":1330,"x_min":3,"x_max":1282,"o":"m 3 627 l 3 336 l 989 336 l 1282 627 l 3 627 z "},"Ǎ":{"ha":555,"x_min":0,"x_max":1272,"o":"m 973 636 l 973 0 l 1270 0 l 1270 636 l 973 636 m 0 296 l 0 0 l 935 0 l 935 296 l 0 296 m 833 971 l 0 605 l 0 334 l 296 334 l 296 411 l 896 674 l 1270 674 l 1270 839 l 1272 840 l 1270 843 l 1270 971 l 833 971 z "},"ǎ":{"ha":1313,"x_min":0,"x_max":1272,"o":"m 973 636 l 973 0 l 1270 0 l 1270 636 l 973 636 m 0 296 l 0 0 l 935 0 l 935 296 l 0 296 m 833 971 l 0 605 l 0 334 l 296 334 l 296 411 l 896 674 l 1270 674 l 1270 839 l 1272 840 l 1270 843 l 1270 971 l 833 971 m 685 1008 l 857 1180 l 412 1180 l 584 1008 l 685 1008 z "},"Ǐ":{"ha":342,"x_min":-67,"x_max":378,"o":"m 0 676 l 298 676 l 298 974 l 0 974 l 0 676 m 0 0 l 298 0 l 298 638 l 0 638 l 0 0 m 206 1008 l 378 1180 l -67 1180 l 105 1008 l 206 1008 z "},"ǐ":{"ha":342,"x_min":-67,"x_max":378,"o":"m 0 676 l 298 676 l 298 974 l 0 974 l 0 676 m 0 0 l 298 0 l 298 638 l 0 638 l 0 0 m 206 1008 l 378 1180 l -67 1180 l 105 1008 l 206 1008 z "},"Ǒ":{"ha":1317,"x_min":0,"x_max":1274,"o":"m 0 974 l 0 336 l 298 336 l 298 676 l 1274 676 l 1274 974 l 0 974 m 977 638 l 977 298 l 0 298 l 0 0 l 1274 0 l 1274 638 l 977 638 m 685 1008 l 857 1180 l 412 1180 l 584 1008 l 685 1008 z "},"ǒ":{"ha":1315,"x_min":0,"x_max":1274,"o":"m 0 974 l 0 336 l 298 336 l 298 676 l 1274 676 l 1274 974 l 0 974 m 977 638 l 977 298 l 0 298 l 0 0 l 1274 0 l 1274 638 l 977 638 m 685 1008 l 857 1180 l 412 1180 l 584 1008 l 685 1008 z "},"Ǔ":{"ha":1312,"x_min":0,"x_max":1271,"o":"m 975 335 l 1271 335 l 1271 972 l 975 972 l 975 335 m 0 675 l 297 675 l 297 972 l 0 972 l 0 675 m 0 637 l 0 0 l 1271 0 l 1271 297 l 297 297 l 297 637 l 0 637 m 685 1008 l 857 1180 l 412 1180 l 584 1008 l 685 1008 z "},"ǔ":{"ha":1312,"x_min":0,"x_max":1271,"o":"m 975 335 l 1271 335 l 1271 972 l 975 972 l 975 335 m 0 675 l 297 675 l 297 972 l 0 972 l 0 675 m 0 637 l 0 0 l 1271 0 l 1271 297 l 297 297 l 297 637 l 0 637 m 685 1008 l 857 1180 l 412 1180 l 584 1008 l 685 1008 z "},"Ǵ":{"ha":1315,"x_min":0,"x_max":1270,"o":"m 0 970 l 0 674 l 1270 674 l 1270 970 l 0 970 m 0 636 l 0 0 l 396 0 l 692 296 l 296 296 l 296 636 l 0 636 m 635 633 l 342 337 l 787 337 l 450 0 l 870 0 l 973 103 l 973 0 l 1270 0 l 1270 633 l 635 633 m 638 1180 l 466 1008 l 739 1008 l 911 1180 l 638 1180 z "},"ǵ":{"ha":1312,"x_min":0,"x_max":1270,"o":"m 0 970 l 0 674 l 1270 674 l 1270 970 l 0 970 m 0 636 l 0 0 l 396 0 l 692 296 l 296 296 l 296 636 l 0 636 m 635 633 l 342 337 l 787 337 l 450 0 l 870 0 l 973 103 l 973 0 l 1270 0 l 1270 633 l 635 633 m 638 1180 l 466 1008 l 739 1008 l 911 1180 l 638 1180 z "},"Ǹ":{"ha":1310,"x_min":0,"x_max":1270,"o":"m 0 0 l 296 0 l 296 637 l 0 637 l 0 0 m 974 0 l 1270 0 l 1270 641 l 974 771 l 974 0 m 0 971 l 0 675 l 455 675 l 936 464 l 936 787 l 517 971 l 0 971 m 638 1180 l 466 1008 l 739 1008 l 911 1180 l 638 1180 z "},"ǹ":{"ha":1307,"x_min":0,"x_max":1270,"o":"m 0 0 l 296 0 l 296 637 l 0 637 l 0 0 m 974 0 l 1270 0 l 1270 641 l 974 771 l 974 0 m 0 971 l 0 675 l 455 675 l 936 464 l 936 787 l 517 971 l 0 971 m 638 1180 l 466 1008 l 739 1008 l 911 1180 l 638 1180 z "},"Ǽ":{"ha":1968,"x_min":0,"x_max":1925,"o":"m 0 295 l 0 -3 l 776 -3 l 776 295 l 0 295 m 673 971 l 0 604 l 0 333 l 298 333 l 298 410 l 736 673 l 1925 673 l 1925 971 l 673 971 m 814 635 l 814 -3 l 1925 -3 l 1925 295 l 1112 295 l 1112 635 l 814 635 m 1149 336 l 1628 336 l 1628 633 l 1149 633 l 1149 336 m 987 1180 l 814 1008 l 1088 1008 l 1259 1180 l 987 1180 z "},"ǽ":{"ha":1968,"x_min":0,"x_max":1925,"o":"m 0 295 l 0 -3 l 776 -3 l 776 295 l 0 295 m 673 971 l 0 604 l 0 333 l 298 333 l 298 410 l 736 673 l 1925 673 l 1925 971 l 673 971 m 814 635 l 814 -3 l 1925 -3 l 1925 295 l 1112 295 l 1112 635 l 814 635 m 1149 336 l 1628 336 l 1628 633 l 1149 633 l 1149 336 m 987 1180 l 814 1008 l 1088 1008 l 1259 1180 l 987 1180 z "},"Ǿ":{"ha":1307,"x_min":-68,"x_max":1327,"o":"m 973 332 l 1270 332 l 1270 859 l 973 562 l 973 332 m 556 672 l 853 968 l 0 968 l 0 672 l 556 672 m 706 294 l 410 -2 l 1270 -2 l 1270 294 l 706 294 m 296 634 l 0 634 l 0 116 l 296 412 l 296 634 m 351 -4 l 353 -2 l 356 -2 l 652 294 l 932 575 l 1270 912 l 1270 914 l 1327 971 l 907 971 l -68 -4 l 351 -4 m 638 1180 l 466 1008 l 739 1008 l 911 1180 l 638 1180 z "},"ǿ":{"ha":1310,"x_min":-68,"x_max":1327,"o":"m 973 332 l 1270 332 l 1270 859 l 973 562 l 973 332 m 556 672 l 853 968 l 0 968 l 0 672 l 556 672 m 706 294 l 410 -2 l 1270 -2 l 1270 294 l 706 294 m 296 634 l 0 634 l 0 116 l 296 412 l 296 634 m 351 -4 l 353 -2 l 356 -2 l 652 294 l 932 575 l 1270 912 l 1270 914 l 1327 971 l 907 971 l -68 -4 l 351 -4 m 638 1180 l 466 1008 l 739 1008 l 911 1180 l 638 1180 z "},"Ȁ":{"ha":1314,"x_min":0,"x_max":1272,"o":"m 973 636 l 973 0 l 1270 0 l 1270 636 l 973 636 m 0 296 l 0 0 l 935 0 l 935 296 l 0 296 m 833 971 l 0 605 l 0 334 l 296 334 l 296 411 l 896 674 l 1270 674 l 1270 839 l 1272 840 l 1270 843 l 1270 971 l 833 971 m 581 1182 l 753 1010 l 858 1010 l 686 1182 l 581 1182 m 412 1182 l 585 1010 l 688 1010 l 516 1182 l 412 1182 z "},"ȁ":{"ha":1312,"x_min":0,"x_max":1272,"o":"m 973 636 l 973 0 l 1270 0 l 1270 636 l 973 636 m 0 296 l 0 0 l 935 0 l 935 296 l 0 296 m 833 971 l 0 605 l 0 334 l 296 334 l 296 411 l 896 674 l 1270 674 l 1270 839 l 1272 840 l 1270 843 l 1270 971 l 833 971 m 581 1182 l 753 1010 l 858 1010 l 686 1182 l 581 1182 m 412 1182 l 585 1010 l 688 1010 l 516 1182 l 412 1182 z "},"Ȃ":{"ha":1312,"x_min":0,"x_max":1272,"o":"m 973 636 l 973 0 l 1270 0 l 1270 636 l 973 636 m 0 296 l 0 0 l 935 0 l 935 296 l 0 296 m 833 971 l 0 605 l 0 334 l 296 334 l 296 411 l 896 674 l 1270 674 l 1270 839 l 1272 840 l 1270 843 l 1270 971 l 833 971 m 857 1137 l 716 1180 l 553 1180 l 412 1137 l 412 1008 l 555 1048 l 713 1048 l 857 1008 l 857 1137 z "},"ȃ":{"ha":1315,"x_min":0,"x_max":1272,"o":"m 973 636 l 973 0 l 1270 0 l 1270 636 l 973 636 m 0 296 l 0 0 l 935 0 l 935 296 l 0 296 m 833 971 l 0 605 l 0 334 l 296 334 l 296 411 l 896 674 l 1270 674 l 1270 839 l 1272 840 l 1270 843 l 1270 971 l 833 971 m 857 1137 l 716 1180 l 553 1180 l 412 1137 l 412 1008 l 555 1048 l 713 1048 l 857 1008 l 857 1137 z "},"Ȅ":{"ha":1312,"x_min":0,"x_max":1270,"o":"m 0 971 l 0 674 l 1270 674 l 1270 971 l 0 971 m 0 636 l 0 0 l 1270 0 l 1270 296 l 296 296 l 296 636 l 0 636 m 334 337 l 973 337 l 973 633 l 334 633 l 334 337 m 581 1182 l 753 1010 l 858 1010 l 686 1182 l 581 1182 m 412 1182 l 585 1010 l 688 1010 l 516 1182 l 412 1182 z "},"ȅ":{"ha":1310,"x_min":0,"x_max":1270,"o":"m 0 971 l 0 674 l 1270 674 l 1270 971 l 0 971 m 0 636 l 0 0 l 1270 0 l 1270 296 l 296 296 l 296 636 l 0 636 m 334 337 l 973 337 l 973 633 l 334 633 l 334 337 m 581 1182 l 753 1010 l 858 1010 l 686 1182 l 581 1182 m 412 1182 l 585 1010 l 688 1010 l 516 1182 l 412 1182 z "},"Ȇ":{"ha":1310,"x_min":0,"x_max":1270,"o":"m 0 971 l 0 674 l 1270 674 l 1270 971 l 0 971 m 0 636 l 0 0 l 1270 0 l 1270 296 l 296 296 l 296 636 l 0 636 m 334 337 l 973 337 l 973 633 l 334 633 l 334 337 m 857 1137 l 716 1180 l 553 1180 l 412 1137 l 412 1008 l 555 1048 l 713 1048 l 857 1008 l 857 1137 z "},"ȇ":{"ha":1310,"x_min":0,"x_max":1270,"o":"m 0 971 l 0 674 l 1270 674 l 1270 971 l 0 971 m 0 636 l 0 0 l 1270 0 l 1270 296 l 296 296 l 296 636 l 0 636 m 334 337 l 973 337 l 973 633 l 334 633 l 334 337 m 857 1137 l 716 1180 l 553 1180 l 412 1137 l 412 1008 l 555 1048 l 713 1048 l 857 1008 l 857 1137 z "}}}
